<svg xmlns="http://www.w3.org/2000/svg" viewBox="0 0 24 24" fill="none" stroke="currentColor" stroke-width="2" stroke-linecap="round" stroke-linejoin="round" class="lucide lucide-apple"><path d="M12 20.94c1.5 0 2.75 1.06 4 2.06 2.25-2 3-3.5 3.5-5.5C21 16 20 13.5 18.5 12c-1.25-1.25-2-3.5-2-5.5 0-1.5 1-2.5 1.5-3.5C17 2 15.5 2 14.5 2c-1.25 0-2.5 1-3.5 2-1 .5-2.5 1.5-3.5 1.5-1.5 0-2.75-1-4-2-1.5 1.5-2 3-2 5 0 2 1 4.5 2.5 5.5C6 17 7.25 18.5 8 20c.75 1.5 1.25 2.5 2 2.5 1.5 0 2.75-1.06 4-2.06z"/></svg>