<?xml version="1.0" encoding="UTF-8"?>
<svg id="Layer_1" data-name="Layer 1" xmlns="http://www.w3.org/2000/svg" viewBox="0 0 939.21 201.86">
  <defs>
    <style>
      .cls-1 {
        letter-spacing: 0em;
      }

      .cls-2 {
        letter-spacing: 0em;
      }

      .cls-3 {
        letter-spacing: -.03em;
      }

      .cls-4 {
        letter-spacing: -.01em;
      }

      .cls-5 {
        letter-spacing: -.01em;
      }

      .cls-6 {
        letter-spacing: 0em;
      }

      .cls-7 {
        stroke-width: 0px;
      }

      .cls-7, .cls-8 {
        fill: #fff;
      }

      .cls-9 {
        letter-spacing: 0em;
      }

      .cls-8 {
        font-family: UrbanistRoman-Medium, Urbanist;
        font-size: 100px;
        font-variation-settings: 'wght' 500;
        font-weight: 500;
      }
    </style>
  </defs>
  <text class="cls-8" transform="translate(38.57 129.86)"><tspan class="cls-6" x="0" y="0">S</tspan><tspan class="cls-5" x="60.75" y="0">t</tspan><tspan class="cls-1" x="94.3" y="0">a</tspan><tspan class="cls-9" x="151.9" y="0">c</tspan><tspan x="201.95" y="0">k</tspan><tspan class="cls-2" x="252.25" y="0">m</tspan><tspan x="340.1" y="0">a</tspan><tspan class="cls-4" x="398.7" y="0">t</tspan><tspan class="cls-9" x="432.25" y="0">c</tspan><tspan x="482.3" y="0">h </tspan><tspan class="cls-3" x="560.5" y="0">b</tspan><tspan x="617.8" y="0">y</tspan></text>
  <path class="cls-7" d="M741.73,151.53h-1.85l46.2-108.16,1.7-.77,38.94,108.93h-13.13l-12.05-33.99h-45.12l-14.68,33.99ZM781.29,60.05l-24.26,55.93h44.04l-19.78-55.93ZM806.95,151.53h-1.85l46.2-108.16,1.7-.77,38.94,108.93h-13.13l-12.05-33.99h-45.12l-14.68,33.99ZM846.51,60.05l-24.26,55.93h44.04l-19.78-55.93ZM881.9,51.4l-1.85.46-.31-.46c2.27-.62,4.12-1.8,5.56-3.55,1.55-1.75,2.32-3.81,2.32-6.18,0-3.81-1.44-5.72-4.33-5.72-2.47,0-5.15.62-8.03,1.85l-.31-.46c2.88-1.24,5.77-1.85,8.65-1.85,6.08,0,9.12,2.11,9.12,6.34s-3.14,7.16-9.43,9.12c5.97.62,8.96,3.24,8.96,7.88,0,3.81-1.96,7.16-5.87,10.04-3.91,2.78-8.03,4.58-12.36,5.41l-.15-.62c3.3-.82,6.28-2.63,8.96-5.41,2.78-2.88,4.17-5.77,4.17-8.65s-.52-5.05-1.55-6.18c-1.03-1.24-2.22-1.91-3.55-2.01Z"/>
</svg>