<?xml version="1.0" encoding="UTF-8"?>
<svg id="Layer_1" data-name="Layer 1" xmlns="http://www.w3.org/2000/svg" viewBox="0 0 1974.86 858.86">
  <defs>
    <style>
      .cls-1 {
        letter-spacing: 0em;
      }

      .cls-2 {
        fill: #4eb748;
        fill-rule: evenodd;
        stroke: #fff;
        stroke-width: 3px;
      }

      .cls-2, .cls-3 {
        stroke-miterlimit: 10;
      }

      .cls-4 {
        letter-spacing: 0em;
      }

      .cls-5 {
        letter-spacing: -.01em;
      }

      .cls-6 {
        letter-spacing: 0em;
      }

      .cls-7 {
        letter-spacing: -.01em;
      }

      .cls-8 {
        letter-spacing: 0em;
      }

      .cls-3 {
        fill: #fff;
        font-family: UrbanistRoman-Medium, Urbanist;
        font-size: 200px;
        font-variation-settings: 'wght' 500;
        font-weight: 500;
        stroke: #231f20;
        stroke-width: .5px;
      }
    </style>
  </defs>
  <g>
    <path class="cls-2" d="M433.21,192.26c-7.44.34-8.68.53-11.2,1.72-1.56.74-5.15,1.81-7.98,2.39-3.4.69-5.53,1.42-6.3,2.13-.66.62-2.66,1.4-4.69,1.83-6.33,1.33-5.84,3.98.55,2.97,1.98-.31,5.25-.72,7.25-.91,2.01-.19,4.44-.66,5.4-1.06,2.82-1.16,16.91-.96,22.47.32,2.44.56,5.72,1.03,7.29,1.04,4.45.03,8.96.93,10.57,2.13.81.6,2.61,1.43,4.01,1.85,1.39.42,3.48,1.54,4.62,2.5,1.23,1.03,2.93,1.88,4.15,2.08,1.23.2,2.56.87,3.29,1.67.68.73,2.1,1.8,3.18,2.36,1.07.56,2.32,1.6,2.78,2.3.46.7,1.63,1.75,2.61,2.33.98.58,1.78,1.41,1.78,1.85s.92,1.26,2.05,1.84c1.13.58,2.2,1.53,2.38,2.11.18.58.99,1.4,1.8,1.82.8.42,1.95,1.59,2.55,2.61.6,1.02,1.34,1.85,1.65,1.85s.93.87,1.37,1.94c.45,1.07,1.7,2.96,2.79,4.2,1.09,1.24,2.13,2.89,2.33,3.68.19.78,1.02,2.13,1.85,2.99,1.13,1.18,1.63,2.39,2.03,4.88.34,2.1,1.08,4.15,2.05,5.61,1.11,1.69,1.69,3.46,2.16,6.63.35,2.38,1.04,5.03,1.53,5.89,1.58,2.79,2.11,5.01,2.68,11.19.4,4.4.89,6.79,1.78,8.68,3.48,7.44,3.49,55.75,0,64.05-.91,2.16-1.3,4.35-1.54,8.63-.57,9.95-1.27,14.43-2.64,16.79-.9,1.54-1.41,3.56-1.81,7.06-.4,3.55-.98,5.79-2.12,8.17-1.09,2.29-1.73,4.65-2.09,7.84-.36,3.09-1.01,5.58-2.01,7.7-.82,1.73-1.86,5.1-2.31,7.49-.55,2.92-1.22,4.83-2.04,5.81-.8.96-1.45,2.77-1.9,5.32-.73,4.15-1.19,5.37-2.67,7-.54.6-1.19,2.6-1.53,4.71-.32,2.01-1.03,4.36-1.58,5.23-1.61,2.52-2.52,4.55-3.11,6.92-.3,1.22-1.14,2.85-1.85,3.62-.71.77-1.43,2.01-1.59,2.75-.74,3.39-1.46,5.1-2.6,6.2-.68.65-1.37,1.83-1.54,2.61-.6,2.82-1.92,5.95-2.63,6.22-.4.15-1.11,1.6-1.58,3.22-.52,1.81-1.44,3.49-2.38,4.37-.84.79-1.77,2.32-2.06,3.41-.29,1.09-1.21,2.84-2.04,3.9-.83,1.06-1.79,2.59-2.14,3.4-.34.81-1.25,2.18-2.01,3.05-.76.86-1.79,2.7-2.3,4.07-.51,1.38-1.47,2.87-2.14,3.31-.67.44-1.5,1.67-1.84,2.72-.34,1.05-1.13,2.51-1.76,3.22-.63.72-1.79,2.42-2.56,3.78-.77,1.36-1.84,2.7-2.36,2.99-.53.28-1.35,1.35-1.83,2.37s-1.44,2.22-2.12,2.67c-.68.45-1.39,1.48-1.56,2.28-.18.81-.92,2.02-1.65,2.71-.73.68-1.66,1.89-2.07,2.67-.8,1.55-4.27,5.82-7.11,8.76-.97,1.01-2.16,2.48-2.65,3.27-.49.79-1.24,1.44-1.68,1.44s-1.14.83-1.56,1.85c-.42,1.02-1.36,2.12-2.08,2.45-.72.33-1.66,1.35-2.09,2.26-.43.91-1.37,1.93-2.07,2.25-.71.32-1.52,1.19-1.79,1.92-.28.73-1.19,1.73-2.03,2.21-.84.48-1.89,1.65-2.34,2.59-.45.94-1.04,1.71-1.32,1.71s-1.44.94-2.57,2.09c-1.13,1.15-2.43,2.09-2.88,2.09s-1.16.82-1.57,1.81c-.49,1.17-1.22,1.93-2.07,2.14-.72.18-1.78,1.12-2.35,2.09-.57.97-1.61,1.91-2.32,2.09-.74.19-1.54.95-1.89,1.8-.34.81-1.3,1.77-2.15,2.12-.85.35-1.89,1.31-2.31,2.14s-1.01,1.5-1.3,1.5-1.63,1.07-2.98,2.37c-6.06,5.84-6.82,6.52-7.32,6.52-.3,0-1.6.92-2.89,2.05-1.29,1.12-3.08,2.2-3.97,2.4-.97.21-1.84.85-2.17,1.58-.3.67-1.25,1.51-2.09,1.86-.85.35-2.63,1.56-3.97,2.68-1.34,1.12-3.09,2.17-3.88,2.34-2.75.58-1.56,4.51,1.63,5.37,4.49,1.21,9.75,1.97,10.59,1.53.48-.25,1.33-.46,1.89-.46s1.97-.93,3.13-2.06c1.17-1.13,2.89-2.46,3.83-2.95.94-.49,2.34-1.56,3.1-2.38.76-.82,1.87-1.49,2.47-1.49s1.6-.7,2.23-1.56c.63-.86,1.58-1.7,2.11-1.87s2.28-1.47,3.89-2.88c1.61-1.42,3.24-2.57,3.63-2.57s1.3-.68,2.05-1.52c.74-.84,1.94-1.67,2.67-1.85,1.32-.33,15.78-14.43,15.78-15.39,0-.28.48-.66,1.06-.85.58-.19,1.63-1.24,2.32-2.35.69-1.1,1.74-2.16,2.33-2.35.59-.19,1.42-1.02,1.85-1.86.43-.84,1.48-1.88,2.34-2.33.85-.44,1.55-1.11,1.55-1.49,0-.84,2.18-2.95,3.04-2.95.35,0,.78-.41.96-.91.47-1.34,2.32-3.27,3.14-3.27.39,0,.92-.57,1.19-1.27.26-.7,1.22-1.82,2.13-2.48.91-.67,1.85-1.75,2.1-2.41.25-.66,1.16-1.6,2.01-2.09.91-.52,1.69-1.49,1.87-2.32.17-.79.93-1.91,1.67-2.5.75-.59,1.81-1.83,2.37-2.75.97-1.62,3.64-4.79,7.42-8.83.99-1.06,1.8-2.25,1.8-2.65s.57-1.27,1.27-1.93c.7-.66,1.88-2.44,2.62-3.96.74-1.52,1.68-2.89,2.09-3.05s1.34-1.47,2.07-2.91c.73-1.44,1.76-2.85,2.3-3.14.54-.29,1.11-1.18,1.27-1.98.16-.8,1.36-2.71,2.67-4.24,1.31-1.53,2.38-3.13,2.38-3.55s.59-1.36,1.32-2.09c.73-.73,1.77-2.52,2.33-3.99.55-1.47,1.72-3.32,2.59-4.11.87-.8,1.58-1.95,1.58-2.56,0-1.41.8-2.94,2.67-5.1.81-.94,1.63-2.35,1.81-3.14.18-.79.99-2.28,1.8-3.31.81-1.04,1.86-3.08,2.33-4.54.48-1.46,1.31-3.06,1.86-3.56.55-.5,1.47-2.42,2.04-4.28.57-1.85,1.62-4.06,2.33-4.91.71-.84,1.53-2.53,1.84-3.73.72-2.88,1.95-5.6,2.53-5.6s1.49-2.26,1.93-4.84c.19-1.08.99-2.78,1.78-3.79.95-1.19,1.67-3,2.08-5.23.37-1.97,1.26-4.34,2.1-5.62.8-1.22,1.84-3.87,2.31-5.87.5-2.17,1.33-4.19,2.05-4.97.83-.9,1.47-2.69,2.06-5.73.51-2.6,1.37-5.18,2.1-6.27.69-1.02,1.41-3.03,1.6-4.47.7-5.13,1.44-7.71,2.51-8.79.82-.83,1.32-2.55,2.03-7.01.6-3.75,1.41-6.82,2.22-8.39,1.04-2.01,1.39-3.76,1.83-9.29.6-7.46.89-8.87,2.57-12.06.96-1.83,1.19-3.54,1.62-11.69.58-11.11.7-11.99,2.5-17.54l1.36-4.18.02-21.96.02-21.96-1.37-2.35c-1.71-2.93-1.99-4.13-2.53-10.88-.35-4.33-.64-5.64-1.49-6.55-1.51-1.62-2.06-3.37-2.7-8.58-.42-3.39-.9-5.07-1.86-6.47-.86-1.25-1.58-3.47-2.13-6.53-.58-3.26-1.18-5.03-2-5.95-.65-.72-1.65-2.25-2.23-3.4-1.23-2.45-7.61-8.33-10.21-9.42-.99-.42-2.11-1.19-2.49-1.72-.38-.53-2.01-1.57-3.64-2.31-1.62-.74-3.2-1.82-3.51-2.4-.31-.58-1.44-1.34-2.52-1.68s-2.54-1.17-3.26-1.84c-.72-.67-2.47-1.73-3.91-2.35-1.43-.63-3.12-1.61-3.75-2.19-.63-.58-2.92-1.47-5.09-1.99-2.38-.57-4.56-1.46-5.49-2.25-1.85-1.56-2.34-1.72-6.93-2.17-2.43-.24-4.49-.84-6.51-1.91-4.28-2.26-16.08-2.9-36.34-1.99"/>
    <path class="cls-2" d="M390.35,222.08c-3.26.25-5.85.72-6.57,1.2-1.53,1-6,2.25-9.67,2.7-1.94.24-3.29.74-4.17,1.57-2.06,1.93-4.02,2.43-10.13,2.6-5.47.15-5.74.21-6.7,1.53-.55.76-1.68,1.73-2.51,2.16-3.57,1.85-1.18,5.19,2.77,3.86,1.68-.57,6-1.17,11.08-1.54,4.58-.33,9.04-.91,9.91-1.27,1.02-.43,2.02-.5,2.8-.22,1.62.6,11.77,1.48,17.16,1.49,5.17,0,8.73.81,9.7,2.19.44.62,1.97,1.3,4.02,1.77,4.07.93,6.09,1.72,6.58,2.58.21.36,1.59,1.26,3.07,2.01,1.48.75,2.84,1.82,3.02,2.38.18.59,1,1.17,1.92,1.37.99.22,1.92.92,2.45,1.87.47.83,1.6,1.76,2.5,2.06,1.94.65,8.08,6.78,10.17,10.16.81,1.3,1.71,2.36,2.01,2.36s.91.88,1.36,1.96c.45,1.08,1.46,2.55,2.26,3.27.8.72,1.84,2.37,2.33,3.66s1.32,2.82,1.85,3.4c.53.58,1.46,2.38,2.06,4,.6,1.63,1.45,3.25,1.89,3.62,1.3,1.08,1.79,2.39,2.56,6.76.4,2.28,1.19,4.8,1.76,5.6,1.06,1.5,1.86,4.87,2.44,10.34.18,1.73.88,4.22,1.55,5.53,2.09,4.13,2.46,10.36,2.19,37.41-.25,25.41-.43,27.7-2.61,31.87-.47.89-1.1,4.08-1.4,7.09-.62,6.14-.98,7.64-2.53,10.63-.72,1.39-1.29,4.02-1.69,7.83-.64,6.06-1.1,7.81-2.41,9.27-.44.49-1.26,3.43-1.81,6.54-.7,3.91-1.39,6.21-2.27,7.48-.87,1.27-1.44,3.13-1.83,6.01-.31,2.29-1,4.99-1.53,6-2.27,4.29-2.61,5.08-3.14,7.18-.3,1.22-1.14,2.85-1.85,3.62-.71.77-1.43,2.01-1.6,2.75-.92,4.14-1.36,5.3-2.26,5.93-1.16.81-1.92,2.49-2.36,5.24-.18,1.08-.97,2.73-1.76,3.66-.79.93-1.74,2.73-2.11,4.01-.37,1.28-1.35,2.96-2.19,3.74-.84.78-1.88,2.44-2.31,3.68-.44,1.24-1.23,2.73-1.76,3.31-.54.58-1.58,2.33-2.32,3.88-.74,1.55-1.82,3.15-2.39,3.56-.58.41-1.05,1.09-1.05,1.52,0,1.27-2.01,4.84-3.05,5.4-.53.28-1.37,1.59-1.86,2.89-.5,1.31-1.32,2.67-1.82,3.03-.5.36-1.3,1.48-1.78,2.48s-1.8,2.86-2.95,4.12c-1.15,1.26-2.09,2.6-2.09,2.99s-.69,1.21-1.52,1.83c-.84.62-1.67,1.71-1.85,2.42-.38,1.52-4.61,7.34-7.57,10.42-1.15,1.19-2.09,2.39-2.09,2.66s-.59.76-1.31,1.09c-.72.33-1.53,1.17-1.8,1.88-.27.7-1.22,1.82-2.12,2.49-.9.67-1.95,1.95-2.32,2.86-.38.91-1.18,1.81-1.79,2-.6.19-1.43,1.16-1.84,2.14-.41.99-1.29,2.04-1.95,2.34-.66.3-1.6,1.25-2.09,2.1-.49.85-1.48,1.77-2.22,2.05-.73.28-1.55,1.08-1.81,1.78-.28.74-1.21,1.54-2.23,1.91-.96.35-2.14,1.32-2.62,2.16-.48.84-1.57,1.77-2.42,2.07-.85.3-1.7,1-1.87,1.56-.18.56-.95,1.42-1.71,1.91-.77.49-2.92,2.43-4.78,4.31-1.86,1.88-4.32,3.98-5.47,4.68s-2.75,1.81-3.56,2.48c-.81.67-2.1,1.36-2.87,1.55s-2.37,1.23-3.56,2.32c-1.22,1.11-2.96,2.13-3.97,2.32-1.1.21-2.22.9-2.85,1.76-.58.79-1.98,1.7-3.17,2.06-2.68.81-2.75.94-1.63,3.55l.93,2.16,4.18.61c5.56.82,9.17.33,10.54-1.43.57-.73,1.8-1.79,2.72-2.36.92-.56,2.58-1.8,3.69-2.75s2.65-1.87,3.44-2.04,1.93-1.01,2.56-1.86c.63-.85,1.47-1.54,1.87-1.54s1.86-.98,3.23-2.17c1.37-1.19,3.21-2.47,4.07-2.83.86-.36,2.14-1.27,2.84-2.01.69-.74,1.56-1.35,1.91-1.35,1.52,0,8.35-6.56,27.74-26.66,4.3-4.46,8.74-9.05,9.87-10.2,1.13-1.16,2.2-2.59,2.39-3.19.19-.6,1.04-1.71,1.9-2.48.85-.76,1.55-1.73,1.55-2.14s1.17-2.09,2.6-3.74c1.43-1.64,2.6-3.18,2.6-3.41s.94-1.35,2.08-2.49c1.15-1.14,2.08-2.4,2.08-2.8s.69-1.39,1.54-2.2c.85-.81,1.69-2.17,1.87-3,.18-.84,1.15-2.34,2.14-3.34.99-1,2.13-2.57,2.51-3.5.39-.93,1.3-2.24,2.02-2.92.73-.68,1.47-1.93,1.66-2.78.18-.84,1.15-2.35,2.14-3.34.99-.99,2.15-2.8,2.57-4.01.42-1.21,1.21-2.68,1.75-3.26.54-.58,1.58-2.33,2.32-3.88.74-1.55,1.82-3.15,2.39-3.56.58-.41,1.05-1.09,1.05-1.52,0-1.28,1.58-4.03,3.19-5.53.85-.8,1.5-1.95,1.5-2.67,0-1.97,1.07-4.69,2.41-6.15.68-.73,1.23-1.69,1.23-2.13,0-1.7,1.65-6.25,2.59-7.13.54-.51,1.45-2.6,2.01-4.65,1.12-4.05,1.96-5.94,2.65-5.94.62,0,1.48-2.45,1.86-5.33.18-1.35.94-3.35,1.69-4.44.75-1.1,1.78-3.73,2.29-5.85.51-2.12,1.51-4.71,2.21-5.75.83-1.22,1.41-3,1.64-5.03.58-5.19,1.27-7.74,2.63-9.72.97-1.42,1.42-3.02,1.82-6.52.66-5.86.88-6.74,2.42-9.73,1.02-1.99,1.35-3.73,1.78-9.41.37-5.01.89-8.04,1.83-10.77,2.95-8.58,3.35-64.28.5-68.75-1.05-1.65-1.84-4.94-2.43-10.14-.36-3.14-.97-5.45-2.06-7.68-.85-1.75-1.55-3.54-1.55-3.98,0-1.76-1.15-4.77-2.36-6.21-.71-.84-1.76-3.08-2.34-4.98-.58-1.9-1.64-4.07-2.35-4.84-.71-.76-1.28-1.72-1.28-2.12,0-1.12-1.84-4.49-3.06-5.6-.6-.54-1.24-1.79-1.42-2.78-.2-1.08-.9-2.21-1.77-2.85-.79-.58-1.97-2.22-2.63-3.63-.79-1.69-1.84-2.94-3.06-3.67-2.17-1.28-5.46-4-8.54-7.07-1.2-1.19-2.68-2.32-3.3-2.5-.62-.19-1.48-.88-1.91-1.55-.57-.87-1.69-1.4-3.98-1.89-1.76-.37-4.2-1.35-5.43-2.17-1.57-1.04-3.87-1.82-7.66-2.58-2.98-.6-5.9-1.41-6.5-1.79-2.75-1.75-15.68-2.31-29.29-1.26"/>
    <path class="cls-2" d="M324.1,255.39c-1.68,1.14-5.18,4.91-5.2,5.6,0,.29-.52.76-1.15,1.05-.62.28-1.58,1.4-2.13,2.48-.55,1.08-1.33,1.96-1.73,1.96s-1.31.93-2.03,2.07c-.72,1.14-1.77,2.32-2.35,2.63-.57.31-1.4,1.25-1.84,2.1-.44.85-1.47,1.89-2.29,2.32-.82.43-1.64,1.37-1.82,2.09-.18.72-1.03,1.84-1.88,2.47-.86.64-1.55,1.48-1.55,1.88s-.82,1.59-1.83,2.65c-2.34,2.45-5.93,7.01-7.3,9.26-.58.96-1.7,2.25-2.47,2.86-.78.61-1.41,1.57-1.41,2.12s-.79,1.89-1.75,2.97c-.97,1.08-2.13,2.71-2.59,3.62-.46.91-1.44,2.12-2.16,2.69-.73.57-1.66,1.87-2.09,2.89-.42,1.02-1.22,2.16-1.76,2.54-.55.38-1.33,1.52-1.76,2.52-.42,1-1.62,2.84-2.67,4.1-1.05,1.25-2.05,2.9-2.24,3.66-.18.76-.97,2.12-1.76,3.03s-1.83,2.72-2.33,4.03c-.5,1.31-1.42,2.73-2.05,3.14-.63.41-1.42,1.7-1.77,2.86-.35,1.16-1.45,3.09-2.45,4.29s-1.96,2.81-2.14,3.57c-.18.76-.87,1.98-1.54,2.7-.67.73-1.78,2.84-2.45,4.71-.68,1.86-1.83,4.26-2.56,5.33-.73,1.07-1.49,2.83-1.69,3.9-.42,2.26-1.66,4.87-2.31,4.87-.57,0-1.47,2.3-1.92,4.9-.19,1.11-1.01,2.77-1.81,3.69-.91,1.04-1.74,2.89-2.2,4.91-.41,1.78-1.34,4.12-2.06,5.2-.72,1.08-1.71,3.78-2.19,6.01-.52,2.43-1.35,4.63-2.06,5.49-.74.89-1.44,2.82-1.86,5.09-.72,3.97-1.2,5.19-2.64,6.8-.56.63-1.26,2.9-1.74,5.68-.47,2.73-1.33,5.53-2.08,6.82-.95,1.62-1.43,3.54-1.84,7.39-.43,3.94-.94,5.97-2.12,8.34-1.25,2.53-1.65,4.24-2.07,8.8-.6,6.54-1.18,9.03-2.74,11.68-1.33,2.27-1.66,9.04-.5,10.21,1.35,1.36,7.37.86,9.85-.82,2.68-1.81,3.12-3.08,3.55-10.26.44-7.48,1.1-10.97,2.38-12.72.79-1.07,1.35-3.32,2.05-8.19.67-4.65,1.36-7.49,2.26-9.24.86-1.69,1.48-4.13,1.86-7.35.62-5.29,1.05-6.75,2.6-8.9.57-.79,1.39-3.17,1.82-5.31.46-2.23,1.23-4.34,1.82-4.97.59-.63,1.49-3.09,2.12-5.79.65-2.78,1.52-5.15,2.15-5.83.63-.67,1.45-2.88,2.01-5.37.52-2.33,1.38-4.85,1.91-5.61,1.72-2.44,2.25-3.56,2.26-4.78.01-1.72,1.43-4.89,2.55-5.67.57-.4,1.23-1.96,1.64-3.91.43-2.04,1.2-3.84,2.09-4.86.77-.89,1.69-2.86,2.05-4.39.36-1.53,1.22-3.45,1.91-4.27.69-.82,1.72-2.98,2.3-4.81.58-1.82,1.63-4.15,2.33-5.16.7-1.02,1.65-2.96,2.11-4.32.46-1.36,1.25-2.76,1.74-3.12.5-.36,1.51-1.98,2.24-3.61s1.83-3.22,2.42-3.54c.59-.32,1.32-1.5,1.62-2.62.3-1.13,1.35-3,2.32-4.18.98-1.17,2.04-2.93,2.36-3.91.32-.98,1.16-2.16,1.86-2.62.7-.46,1.28-1.2,1.28-1.63,0-1.31,2.02-4.86,3.09-5.44.55-.29,1.28-1.42,1.62-2.5.34-1.08,1.14-2.55,1.78-3.27.63-.72,1.8-2.44,2.58-3.82.79-1.38,1.77-2.65,2.19-2.81.42-.16,1.33-1.41,2.02-2.78s1.61-2.62,2.04-2.79c.43-.17,1.16-1.2,1.61-2.29.45-1.09,1.49-2.69,2.3-3.55.81-.86,1.85-2.31,2.31-3.23.46-.91,1.52-2.15,2.36-2.75.84-.6,1.68-1.79,1.87-2.65.19-.85.86-1.97,1.5-2.48.64-.51,1.85-2.16,2.7-3.67.84-1.51,1.7-2.74,1.9-2.74.6,0,2.56-2.26,3.05-3.53.25-.65.78-1.18,1.17-1.18,1.07,0,2.61-1.94,2.26-2.86-.39-1.02-1.3-.98-2.94.14"/>
    <path class="cls-2" d="M344.16,254.8c-4.28.53-5.81,1.27-6.67,3.23-.46,1.05-1.69,2.81-2.72,3.91-2.81,2.98-2.23,3.27,7.44,3.67,9.01.37,12.12.91,14.06,2.44.71.56,2.14,1.16,3.18,1.33,3.37.57,5.11,1.28,6.34,2.6.67.71,1.6,1.29,2.07,1.29,1.61,0,5.99,1.68,6.81,2.61.45.51,1.57,1.32,2.5,1.8.93.48,1.94,1.45,2.26,2.15.32.7.95,1.39,1.41,1.54,2.4.77,13.7,13.07,14.31,15.58.19.8,1.17,2.33,2.18,3.39s2.1,2.89,2.44,4.04c.34,1.15,1.24,2.7,2.01,3.43,1.3,1.24,2.54,4.31,2.54,6.3,0,.46.57,1.45,1.26,2.2.86.94,1.6,2.91,2.39,6.35.62,2.75,1.34,4.99,1.6,4.99,1.29,0,2.08,3.45,2.57,11.34.29,4.54.8,9.2,1.14,10.35.8,2.71,1.17,22.3.47,25.11-.29,1.16-.77,6.92-1.08,12.81-.69,13.26-1.28,17.43-2.84,20.11-.94,1.61-1.35,3.48-1.79,8.11-.47,4.89-.87,6.6-2.13,9.15-1.11,2.24-1.72,4.48-2.11,7.84-.71,5.99-1.25,7.97-2.57,9.39-.6.64-1.31,2.49-1.63,4.23-.6,3.26-1.75,5.99-2.53,5.99-.26,0-.89,1.81-1.41,4.02-.52,2.21-1.44,4.62-2.05,5.36-1.52,1.83-2.1,3.09-2.52,5.4-.2,1.08-1.05,2.77-1.9,3.74-.85.97-1.88,2.88-2.29,4.23-.41,1.36-1.22,2.98-1.81,3.62-.59.63-1.66,2.65-2.38,4.48s-1.78,3.84-2.37,4.48c-.75.8-1.31,2.59-1.85,5.97-.43,2.69-1.33,5.9-2.02,7.25-.74,1.44-1.38,3.81-1.57,5.83-.72,7.73-1.35,10.46-2.59,11.28-2.09,1.37-2.72,7.54-.78,7.54.23,0,.81-1.03,1.29-2.29.51-1.34,1.37-2.52,2.08-2.84.69-.32,1.35-1.2,1.54-2.08.18-.84,1.38-2.76,2.65-4.26,1.27-1.5,2.32-2.93,2.32-3.19s.82-1.29,1.82-2.29c1-1.01,1.82-2.16,1.82-2.56,0-.88,4.52-7.31,6.68-9.5.89-.9,1.69-2.39,1.88-3.5.18-1.06,1.13-2.89,2.1-4.05.97-1.16,1.92-2.88,2.11-3.82.19-.93,1.04-2.58,1.89-3.66.85-1.08,1.85-3.02,2.24-4.3.39-1.29,1.29-3.05,2.01-3.9.72-.86,1.7-2.74,2.18-4.19.48-1.45,1.27-2.93,1.76-3.28.86-.63,2.24-3.86,2.88-6.76.17-.77.91-2.11,1.64-2.98.88-1.05,1.5-2.66,1.85-4.81.53-3.31,1.71-6.23,2.51-6.23.25,0,.85-1.71,1.34-3.79,1.3-5.55,1.28-5.5,2.59-7.07.81-.96,1.48-2.89,2.03-5.78.45-2.39,1.4-5.58,2.11-7.09.93-1.98,1.46-4.36,1.87-8.46.66-6.6,1.27-9.25,2.32-10.13.97-.81,1.64-4.44,2.35-12.65.31-3.64.93-7.87,1.36-9.41.44-1.54,1.03-3.74,1.32-4.89,1.92-7.54.95-42.01-1.33-47.59-.74-1.81-1.54-5.26-1.87-8.1-.35-3.04-.93-5.45-1.49-6.25-1.2-1.73-1.95-3.79-2.74-7.53-.36-1.7-1.16-3.7-1.77-4.44-.61-.75-1.55-2.65-2.09-4.23-.53-1.58-1.6-3.58-2.37-4.44-.77-.86-1.56-2.09-1.75-2.73-.19-.64-1.14-2.11-2.1-3.27-.96-1.16-2.04-2.97-2.39-4.04-.35-1.06-1.36-2.69-2.25-3.61-.89-.92-2.79-2.98-4.22-4.57-1.43-1.6-2.91-2.91-3.28-2.93s-1.59-.97-2.71-2.12c-1.12-1.15-2.29-2.09-2.6-2.09-.7,0-7.02-4.66-9.12-6.72-1.21-1.19-2.22-1.61-4.52-1.88-2-.23-3.73-.86-5.35-1.94-3.09-2.05-25.82-3.43-35.98-2.18"/>
    <path class="cls-2" d="M285.98,280.53c-1.05.47-2.41,1.48-3.01,2.25-.6.77-1.58,1.48-2.19,1.57-1.01.15-1.44.68-2.52,3.04-.2.43-.98,1.09-1.74,1.47-.76.38-1.38,1.1-1.38,1.6s-1.08,2.05-2.4,3.44c-1.32,1.38-2.73,3.31-3.13,4.28-.4.97-1.01,1.76-1.35,1.76-.81,0-9.58,9.13-11.16,11.63-.68,1.08-1.48,1.96-1.78,1.96s-.96,1-1.49,2.23c-.52,1.23-1.35,2.56-1.84,2.97-.49.41-1.23,1.4-1.64,2.21-.42.81-1.81,2.66-3.09,4.11s-2.33,2.97-2.33,3.37-.57,1.18-1.26,1.72c-.69.55-1.6,1.82-2.02,2.82-.42,1.01-1.49,2.66-2.37,3.67-.89,1.01-2.07,2.92-2.63,4.23-.56,1.31-1.35,2.58-1.75,2.82-.41.24-1.34,1.77-2.07,3.4-.73,1.63-1.82,3.22-2.41,3.54-.59.32-1.32,1.5-1.62,2.62-.3,1.13-1.38,3.04-2.39,4.26-1.01,1.22-1.98,2.88-2.14,3.69s-.88,2.11-1.6,2.89c-.72.78-1.73,2.9-2.25,4.73-.52,1.83-1.54,4.02-2.26,4.89-1.17,1.4-2.39,4.46-2.39,6.04,0,.32-.71,1.47-1.56,2.55-.86,1.08-1.81,2.94-2.11,4.12-.95,3.71-1.06,3.95-2.27,5.42-.74.89-1.44,2.82-1.86,5.09-.82,4.5-1.35,5.97-2.63,7.34-.64.69-1.21,2.5-1.59,5.11-.43,2.9-1.03,4.69-2.13,6.36-1.02,1.55-1.71,3.49-2.08,5.87-.3,1.96-1.21,4.85-2.02,6.43-1.23,2.42-1.56,3.96-2.06,9.67-.69,7.93-1.19,10.47-2.59,13.18-1.27,2.45-2.31,13.54-1.48,15.9.87,2.51,4.87,2.22,7.34-.53,2.16-2.4,2.28-2.9,2.99-12.08.59-7.63,1.21-10.75,2.41-12.1.42-.48.99-2.59,1.26-4.71,1.35-10.54,1.58-11.74,2.58-13.11.57-.78,1.29-2.67,1.6-4.18,1.31-6.46,1.64-7.52,2.65-8.6.61-.66,1.49-2.99,2.07-5.49.65-2.78,1.44-4.81,2.22-5.66.8-.86,1.44-2.52,1.86-4.84.39-2.13,1.23-4.41,2.11-5.76.86-1.31,1.8-3.83,2.28-6.1.46-2.21,1.25-4.34,1.84-4.97.57-.61,1.52-2.68,2.11-4.6.59-1.92,1.52-3.81,2.06-4.19.54-.38,1.47-2.08,2.06-3.78.59-1.7,1.63-3.69,2.3-4.42.67-.74,1.51-2.35,1.85-3.57.35-1.23,1.32-3.02,2.17-3.99.85-.97,1.54-2.08,1.55-2.48.02-1.28,1.91-4.95,3.23-6.27.75-.76,1.43-2.21,1.64-3.52.24-1.53.9-2.78,2.1-3.98.99-.99,1.89-2.53,2.08-3.56.19-.99.83-2.25,1.42-2.79.6-.54,1.42-1.63,1.82-2.42.41-.79,1.79-2.62,3.07-4.07s2.33-2.97,2.33-3.37.57-1.18,1.26-1.72c.69-.55,1.59-1.8,2.01-2.79.41-.99,1.7-2.91,2.87-4.26,1.17-1.35,2.26-2.9,2.43-3.43.17-.54.89-1.29,1.59-1.66.7-.38,1.53-1.45,1.84-2.38.31-.93,1.21-2.38,2-3.21.79-.84,1.9-2.61,2.45-3.95.68-1.66,1.39-2.53,2.21-2.74.74-.19,1.51-1.01,1.97-2.13.44-1.05,1.32-2.04,2.07-2.33.72-.27,1.69-1.17,2.16-1.98.47-.82,1.5-1.86,2.29-2.31,1.03-.59,1.48-1.32,1.6-2.56.14-1.44.45-1.81,1.86-2.21.93-.27,1.69-.79,1.69-1.16,0-1.11-.67-1.17-2.7-.28"/>
    <path class="cls-2" d="M323.38,283.97c-1.32.79-2.43,2.06-3.18,3.62-.63,1.32-1.77,3.02-2.53,3.78-2.37,2.38-2.03,2.79,2.93,3.59,1.08.17,2.72.97,3.65,1.76.92.79,2.71,1.74,3.96,2.11s2.91,1.36,3.69,2.21c.77.85,2.32,1.8,3.45,2.1,1.99.54,5.03,3.39,13.02,12.22,1.3,1.44,3.06,3.37,3.9,4.3.84.93,1.53,2.17,1.53,2.77s.61,1.7,1.36,2.45c1.51,1.52,2.8,4.24,2.8,5.91,0,.6.61,1.7,1.36,2.46,1.59,1.6,2.54,3.72,3.05,6.8.2,1.21,1.05,3.07,1.88,4.12.84,1.06,1.53,2.18,1.53,2.5.05,2.63,1.24,8.12,2.05,9.44,1.71,2.78,2.17,7.76,2.56,27.56l.37,19.16,1.4,2.03c1.47,2.13,2.12,4.74,2.72,11.01.23,2.34.72,4.24,1.28,4.97,1.28,1.66,1.99,4.15,2.61,9.24.85,7.01,1.34,6.67,2.1-1.47.52-5.55.92-7,2.95-10.7.48-.88,1.01-3.79,1.27-7.06.27-3.35.98-7.22,1.78-9.74,2.82-8.9,3.02-39.03.31-46.79-.55-1.58-1.38-5.79-1.84-9.36-.69-5.38-1.08-6.86-2.28-8.68-.85-1.28-1.74-3.69-2.14-5.8-.51-2.64-1.08-3.99-2.12-5.03-.78-.78-1.82-2.71-2.31-4.27-.49-1.56-1.23-2.98-1.65-3.14-.42-.16-1.23-1.39-1.8-2.72-.57-1.34-1.65-3.16-2.4-4.06-.75-.9-1.78-2.61-2.29-3.81-.54-1.26-1.4-2.33-2.06-2.54-.62-.2-1.45-1.1-1.84-2.01-.39-.91-1.91-2.71-3.37-4-1.46-1.29-3.52-3.23-4.59-4.31-1.07-1.08-2.34-1.96-2.84-1.96s-1.8-.82-2.91-1.82c-1.53-1.39-2.85-2-5.52-2.56-2.26-.48-4-1.2-4.89-2.03-1.12-1.04-2.51-1.46-7.12-2.19-3.15-.5-6.2-.98-6.77-1.08-.57-.1-1.95.37-3.07,1.04"/>
    <path class="cls-2" d="M575.49,300.71c-.17,1.16-.53,8.81-.81,17-.53,15.34-.68,16.57-2.52,20.13-.77,1.49-1.25,3.91-1.65,8.45-.61,6.79-.87,8.01-2.52,11.68-.67,1.51-1.27,4.59-1.66,8.57-.63,6.5-1.09,8.33-2.46,9.85-.45.5-1.26,3.21-1.79,6.01-.53,2.8-1.39,5.69-1.91,6.41-1.3,1.79-1.62,2.76-2.44,7.5-.45,2.59-1.19,4.81-2.01,6.01-.87,1.27-1.55,3.43-2.07,6.48-.57,3.39-1.12,4.99-2.1,6.15-.81.96-1.57,2.82-1.95,4.76-.34,1.75-1.14,3.8-1.77,4.56-1.52,1.83-2.34,3.45-2.35,4.62,0,1.82-1.11,4.95-2.11,5.95-.55.56-1.45,2.63-2,4.61-1.11,4.01-1.71,5.32-2.86,6.29-.43.36-1.05,1.94-1.37,3.52-.38,1.81-1.15,3.51-2.11,4.61-.84.96-1.88,2.76-2.32,4-.44,1.25-1.25,2.75-1.79,3.33-.55.59-1.57,2.37-2.27,3.96s-1.63,3.19-2.07,3.55c-.44.36-1.22,1.85-1.74,3.31-.52,1.45-1.55,3.26-2.3,4.02-.74.76-1.64,2.42-2.01,3.7-.36,1.28-1.36,2.97-2.21,3.77-.85.8-1.78,2.28-2.05,3.28-.28,1.01-1.08,2.52-1.8,3.37-.71.85-1.77,2.62-2.35,3.94-.58,1.32-1.63,2.78-2.33,3.24-.7.46-1.27,1.17-1.27,1.58,0,1.09-1.86,4.57-2.91,5.44-.5.41-1.44,1.97-2.1,3.45-.66,1.49-1.53,2.9-1.94,3.14-.41.24-1.26,1.65-1.9,3.15-.64,1.5-1.72,3.09-2.4,3.54-.68.45-1.71,1.74-2.28,2.86-.57,1.13-1.5,2.19-2.05,2.37-.56.18-1.16.99-1.34,1.81-.18.82-.81,1.93-1.4,2.46-.59.53-1.79,2.03-2.66,3.32-.88,1.29-2.37,3.13-3.33,4.08-.95.95-1.73,2.04-1.73,2.42s-.82,1.33-1.82,2.09c-1,.77-1.82,1.75-1.82,2.19s-.71,1.51-1.57,2.37c-.86.87-1.84,2.08-2.17,2.7-.64,1.21-4.09,5.37-7.46,9-1.15,1.24-3.02,3.3-4.17,4.58-1.15,1.29-2.36,2.62-2.69,2.96-.33.34-1.21,1.25-1.95,2.01-1.2,1.25-1.85,1.9-4.41,4.48-.39.39-1.26,1.27-1.94,1.95s-2.35,2.24-3.72,3.46c-1.37,1.22-5.42,5.02-9,8.44-9.37,8.93-11.67,11.03-12.09,11.03-.21,0-1.14.67-2.09,1.5-.94.82-2.3,1.68-3.01,1.9-.72.22-2.24,1.26-3.39,2.31-1.15,1.05-2.86,2.23-3.82,2.62-.95.39-2.4,1.39-3.22,2.21-.82.82-1.95,1.49-2.53,1.49s-1.55.71-2.16,1.57c-.61.86-2.26,2.07-3.66,2.67-1.7.73-2.9,1.69-3.59,2.87-.57.98-1.33,1.77-1.69,1.77-1.69,0,.71,1.08,3.89,1.75,1.95.41,4.42,1.36,5.52,2.13,1.52,1.06,2.88,1.47,5.63,1.7l3.62.31,2.15-2.03c4.35-4.1,6.92-6.21,8.64-7.1.97-.5,1.89-1.24,2.04-1.65.16-.41,1.35-1.16,2.65-1.65,1.33-.51,2.51-1.34,2.68-1.9.17-.55.94-1.39,1.71-1.87.77-.48,2.39-1.77,3.61-2.87,1.22-1.1,2.93-2.14,3.79-2.31.88-.18,2.03-.96,2.61-1.78.57-.81,1.84-1.73,2.83-2.06.98-.33,1.94-1.05,2.11-1.62.18-.57.95-1.41,1.72-1.89,1.6-.98,2.93-2.2,8.05-7.34l2.08-2.09,2.08-2.09,2.08-2.09c.72-.72,1.62-1.63,2.01-2.02.39-.39,1.25-1.25,1.91-1.9.66-.65,4.13-4.24,7.71-7.98,3.58-3.74,6.68-6.96,6.88-7.15.41-.41,2.19-2.26,4.62-4.82.91-.96,2.01-2.6,2.45-3.65.44-1.05,1.17-2.05,1.62-2.22.45-.18,1.27-1.2,1.82-2.28.55-1.08,1.73-2.64,2.62-3.46.89-.83,2.07-2.37,2.62-3.43.55-1.06,1.45-2.07,2.02-2.25.56-.18,1.28-1.13,1.61-2.12.33-.99,1.11-2.21,1.74-2.72.63-.51,1.7-1.86,2.37-3.01,1.4-2.4,3.54-5.08,6.7-8.37,1.22-1.27,2.21-2.66,2.21-3.09s.69-1.3,1.52-1.92c.84-.62,1.66-1.69,1.84-2.38.17-.69,1.12-2.15,2.1-3.24.98-1.09,2.26-3.09,2.84-4.44.58-1.35,1.39-2.59,1.82-2.75.42-.16,1.14-1.41,1.59-2.77.45-1.36,1.61-3.25,2.59-4.19,1.02-.99,1.9-2.47,2.1-3.5.18-.98,1.02-2.57,1.86-3.52.84-.96,1.99-2.84,2.57-4.18.57-1.34,1.38-2.57,1.78-2.73.41-.16,1.24-1.66,1.85-3.33.67-1.83,1.62-3.39,2.4-3.9.81-.53,1.5-1.7,1.87-3.16.32-1.27,1.35-3.17,2.28-4.23.94-1.06,1.98-2.83,2.31-3.95.33-1.11,1.05-2.26,1.59-2.55.58-.31,1.33-1.75,1.83-3.54,1.2-4.3,1.81-5.69,2.89-6.67.52-.48,1.24-2.08,1.58-3.57.71-3.04,1.86-5.58,2.53-5.58.6,0,1.47-2.37,1.89-5.14.2-1.32.94-2.96,1.76-3.92.82-.96,1.72-2.95,2.13-4.75.39-1.7,1.29-3.78,2-4.62.7-.84,1.7-3.05,2.21-4.91.51-1.86,1.53-4.09,2.26-4.97.73-.87,1.44-2.1,1.57-2.72.13-.62.49-2.43.8-4.01.31-1.58,1.13-3.7,1.81-4.71.81-1.19,1.52-3.44,2.02-6.41.57-3.35,1.12-4.99,2.07-6.12,1.24-1.48,1.45-2.24,2.22-7.99.21-1.56.88-3.17,1.79-4.33.8-1.01,1.59-2.72,1.75-3.79.16-1.07.44-3.06.62-4.43.21-1.58.88-3.18,1.84-4.38.83-1.04,1.51-2.04,1.51-2.22.11-3.33,1.73-11.04,2.8-13.32,1.76-3.74,1.8-7.09.12-10.27-.68-1.29-1.64-4.35-2.13-6.79-.57-2.82-1.42-5.26-2.35-6.67-.83-1.27-1.7-3.59-2.01-5.39-.35-2.02-1.03-3.73-1.88-4.74-.73-.87-1.46-2.21-1.63-2.98-.63-2.85-2.01-6.12-2.84-6.73-.47-.35-1.36-2.03-1.99-3.74-1.54-4.24-4.97-5.11-5.5-1.4"/>
    <path class="cls-2" d="M253.77,302.02c0,.29.35.52.78.52s.78-.24.78-.52-.35-.52-.78-.52-.78.24-.78.52"/>
    <path class="cls-2" d="M249.87,305.68c-.42.69.2,1.67.82,1.28.63-.39.63-1.81,0-1.81-.27,0-.64.24-.81.52"/>
    <path class="cls-2" d="M308.47,308.26c0,2.47-.08,2.61-1.81,3.24-1.65.6-3.4,2.93-3.4,4.52,0,.28-.58,1.08-1.29,1.79-.71.71-1.79,2.62-2.41,4.24-.62,1.63-1.67,3.31-2.36,3.76-.68.45-1.24,1.1-1.24,1.45,0,1.73-1.25,4.77-2.56,6.28-.81.93-1.64,2.51-1.86,3.51-.51,2.37-1.45,4.2-2.82,5.44-.6.55-1.1,1.25-1.1,1.57,0,1.7-1.28,4.74-2.63,6.28-.84.96-1.54,1.96-1.54,2.21-.01,1.55-1.31,4.65-2.55,6.09-.94,1.1-1.69,2.83-2.13,4.98-.38,1.81-1.34,4.28-2.14,5.5-.85,1.28-1.79,3.82-2.26,6.07-.49,2.36-1.24,4.33-1.91,5.06-.66.71-1.51,2.91-2.1,5.47-.63,2.69-1.47,4.86-2.29,5.83-.71.85-1.3,1.7-1.3,1.89-.06,2.33-1.76,7.77-2.84,9.05-.73.87-1.33,1.74-1.33,1.93-.05,1.96-1.79,7.99-2.63,9.14-1.11,1.51-1.59,3.82-2.56,12.29-.37,3.23-.98,5.7-1.81,7.32-.79,1.53-1.37,3.81-1.58,6.1-.64,7.26-1.35,10.82-2.65,13.3-1.57,3-2.43,12.49-1.32,14.56,1.3,2.43,12.74,1,13.78-1.72.18-.48.34-1.98.34-3.32,0-4,1.01-9.06,2.38-11.97,1.01-2.15,1.39-4.12,1.78-9.2.52-6.78.89-8.34,2.58-10.68.73-1.02,1.19-2.98,1.6-6.84.63-5.89.99-7.2,2.6-9.38.72-.98,1.22-2.84,1.56-5.83.58-5.1,1.33-7.7,2.41-8.3.42-.24,1.11-1.94,1.53-3.79.42-1.85.87-3.88,1.02-4.5s.86-1.85,1.59-2.72c.89-1.06,1.5-2.66,1.85-4.86.54-3.34,1.82-6.71,2.56-6.71.47,0,1.35-3.7,1.85-7.77.19-1.54,1.01-4.08,1.83-5.64,1.03-1.97,1.67-4.24,2.07-7.39.38-3.02,1.1-5.67,2.14-7.87,1.17-2.49,1.69-4.57,2.06-8.36.52-5.26,1.17-7.95,2.37-9.8.39-.6,1.06-2.28,1.49-3.73,1.16-3.94,2.23-4.44,6.88-3.25,3.57.91,6.39,2.27,6.39,3.08,0,.21,1.19,1.03,2.64,1.82,1.45.79,2.77,1.79,2.94,2.21.16.42,1.49,1.31,2.96,1.97,1.47.66,3.47,2.06,4.46,3.1,2.88,3.04,4.23,2.35,3.13-1.6-.46-1.65-1.12-2.65-2.19-3.3-.84-.51-1.96-1.64-2.48-2.51-.52-.87-1.43-1.73-2.01-1.91-.58-.19-1.34-1.13-1.69-2.11-.4-1.12-1.08-1.88-1.85-2.07-.72-.18-1.58-1.08-2.12-2.24-.7-1.48-1.32-2.01-2.65-2.29-3.84-.78-7.15-5.5-6.63-9.44.21-1.61.14-2.53-.2-2.53-.3,0-.54,1.15-.54,2.58"/>
    <path class="cls-2" d="M245.67,309.91c-.19.31-.08.84.25,1.17.65.65,1.78-.51,1.27-1.32-.36-.59-1.11-.52-1.53.15"/>
    <path class="cls-2" d="M241.63,313.86c-.72.72-.34,1.83.55,1.65.5-.1.91-.51.91-.91,0-.83-.92-1.29-1.47-.74"/>
    <path class="cls-2" d="M237.45,318.06c-.19.19-.35.8-.35,1.34,0,1.42,1.78.96,1.99-.52.16-1.13-.84-1.63-1.64-.82"/>
    <path class="cls-2" d="M233.29,322.24c-.54.55-.41,3.83.16,3.83.7,0,2.21-3.05,1.83-3.68-.36-.58-1.48-.67-1.99-.16"/>
    <path class="cls-2" d="M229.59,326.46c-.22.22-.71,1.15-1.09,2.07-.43,1.04-1.2,1.8-1.99,2-.79.2-1.42.82-1.61,1.62-.18.71-1.11,1.76-2.08,2.33-.97.57-1.9,1.62-2.08,2.34-.18.71-1.14,2.2-2.13,3.31s-2.16,2.86-2.59,3.9c-.43,1.04-1.34,2.25-2.01,2.69-.67.44-1.5,1.73-1.84,2.87-.34,1.14-1.52,3.11-2.62,4.39-1.1,1.27-2.14,2.9-2.32,3.61s-.91,1.68-1.63,2.15c-.72.47-1.31,1.27-1.31,1.76,0,1.15-1.94,4.36-3.13,5.2-.5.35-1.26,1.53-1.7,2.61-.44,1.09-1.4,2.54-2.15,3.24-.74.7-1.35,1.57-1.35,1.94,0,1.12-2.51,6.46-3.04,6.46-.27,0-.91,1.59-1.42,3.53-1.05,4.02-1.9,5.93-3.05,6.89-.44.37-1.08,2.09-1.42,3.83-.41,2.07-1.11,3.73-2.05,4.8-.95,1.09-1.64,2.73-2.07,4.91-.4,2.03-1.17,3.95-2.04,5.04-.9,1.14-1.71,3.19-2.27,5.74-.48,2.18-1.45,5.09-2.16,6.46-.93,1.79-1.45,3.94-1.83,7.67-.59,5.75-1.32,8.96-2.13,9.46-1,.62-1.61,3.09-2.09,8.49-.45,5.08-.86,6.54-2.93,10.3-1.12,2.04-1.6,10.37-.66,11.5,1.19,1.44,6.77.57,6.77-1.06,0-.35.49-1.25,1.09-2.02.85-1.08,1.19-2.6,1.58-7,.74-8.47,1.42-12,2.84-14.73.99-1.89,1.41-3.8,1.78-8.05.55-6.26,1.23-9.28,2.6-11.58.52-.86,1.1-3.1,1.3-4.97.5-4.76,1.1-6.82,2.57-8.82.7-.95,1.56-2.94,1.9-4.43.73-3.11,1.29-4.37,2.6-5.84.52-.58,1.32-2.69,1.78-4.7.5-2.16,1.33-4.19,2.04-4.97.66-.73,1.48-2.63,1.83-4.27.35-1.63,1.3-3.98,2.12-5.23.82-1.25,1.79-3.33,2.16-4.62.37-1.29,1.27-3.06,2.01-3.93.74-.87,1.67-2.59,2.08-3.82.41-1.23,1.36-2.88,2.12-3.65.76-.78,1.66-2.39,2-3.6.34-1.2,1.33-2.85,2.19-3.66.89-.84,1.81-2.43,2.13-3.68.31-1.22,1.12-2.82,1.81-3.56,1.44-1.56,2.81-4.05,2.81-5.11,0-.4.49-1.18,1.1-1.73.99-.9,2.44-3.62,3.26-6.1.17-.51.89-1.15,1.6-1.42.75-.28,1.63-1.28,2.07-2.35.44-1.05,1.33-2.06,2.05-2.34.81-.31,1.4-1.06,1.62-2.03.18-.85.79-1.95,1.34-2.45.55-.5.88-1.11.72-1.36-.34-.56-2.5-.6-3.04-.06"/>
    <path class="cls-2" d="M332.78,338.71c-.89.5-.89.58-.04,1.53,1.21,1.34,1.78,1.26,1.78-.28s-.51-1.94-1.74-1.25"/>
    <path class="cls-2" d="M607.95,411.89c-.42,2.12-1.12,3.77-2.06,4.85-.95,1.09-1.64,2.73-2.07,4.91-.41,2.11-1.17,3.94-2.13,5.16-.82,1.04-1.49,2.16-1.49,2.5,0,1.65-1.73,6.16-2.9,7.55-.72.86-1.66,2.74-2.08,4.18-.43,1.44-1.36,3.32-2.08,4.18-.72.86-1.66,2.74-2.08,4.18-.43,1.44-1.36,3.32-2.08,4.18-.72.86-1.66,2.74-2.08,4.18-.43,1.44-1.36,3.32-2.08,4.18-.72.86-1.65,2.71-2.07,4.12-.42,1.41-1.21,2.97-1.76,3.47s-1.5,2.07-2.1,3.48c-.61,1.42-1.63,2.92-2.28,3.35-.68.45-1.44,1.75-1.79,3.08-.35,1.31-1.3,2.95-2.2,3.8-.87.82-1.94,2.59-2.38,3.92-.44,1.33-1.24,2.82-1.78,3.3-.53.49-1.47,2.04-2.07,3.46s-1.68,2.96-2.39,3.42c-.71.47-1.29,1.18-1.29,1.59,0,1.07-1.85,4.57-2.87,5.41-.47.39-1.43,1.84-2.12,3.21-.69,1.37-1.73,2.75-2.3,3.06-.57.31-1.04.96-1.04,1.46,0,1.14-1.94,4.36-3.13,5.2-.5.35-1.26,1.53-1.7,2.61-.43,1.09-1.28,2.42-1.88,2.97-.6.55-1.66,2.23-2.35,3.74-.69,1.51-1.7,2.99-2.24,3.28s-1.43,1.35-1.97,2.36c-.54,1.01-1.52,2.07-2.17,2.37-.65.3-1.53,1.36-1.94,2.35-.41.99-1.36,2.2-2.1,2.69-.74.49-1.35,1.21-1.35,1.61s-.78,1.6-1.73,2.68c-.95,1.08-2.13,2.55-2.61,3.27-1.1,1.64-4.19,5.23-6.65,7.75-1.03,1.06-2.15,2.45-2.49,3.09-.34.64-1.31,1.53-2.16,1.97-.85.44-1.55,1.14-1.55,1.55s-.83,1.41-1.84,2.21c-1.01.8-2.29,2.22-2.85,3.16-.55.93-1.38,1.7-1.83,1.7s-1.17.83-1.59,1.85c-.42,1.02-1.36,2.12-2.08,2.45-.72.33-1.68,1.38-2.13,2.34-.48,1.02-1.34,1.87-2.08,2.06-.78.2-1.54.99-2,2.09-.42,1.02-1.31,1.99-2.07,2.28-.73.28-1.55,1.09-1.82,1.79-.27.7-1.17,1.79-2.02,2.42-.84.62-1.82,1.68-2.18,2.35-.36.67-1.26,1.47-2.01,1.79-.75.31-1.76,1.27-2.25,2.13-.49.86-1.49,1.79-2.22,2.07-.73.28-1.6,1.09-1.92,1.8-.32.71-1.33,1.65-2.25,2.08-.91.43-1.93,1.38-2.25,2.1-.33.72-1.42,1.66-2.44,2.08-1.01.42-1.84,1.13-1.84,1.57s-.64,1.21-1.43,1.71c-.79.5-2.31,1.74-3.39,2.76-1.08,1.02-2.72,2.57-3.65,3.45-.93.88-2.77,2.24-4.09,3.01-1.32.77-2.81,1.87-3.32,2.43-.51.56-1.67,1.27-2.59,1.57-.92.3-2.19,1.25-2.82,2.11-.63.86-1.47,1.56-1.87,1.56s-1.97,1.07-3.49,2.37c-1.52,1.3-3.47,2.56-4.34,2.78-1.28.34-1.54.65-1.4,1.68.35,2.58,1.43,3.46,5.32,4.34,2.27.51,4.33,1.36,5.28,2.16.85.72,2.06,1.31,2.68,1.32s1.63.14,2.24.31c.83.22,1.64-.24,3.22-1.84,1.16-1.17,2.3-2.14,2.54-2.14.24,0,1.48-.93,2.76-2.07,1.28-1.14,2.98-2.22,3.78-2.39.8-.18,1.69-.77,1.99-1.32.29-.55,1.67-1.58,3.06-2.29,1.39-.7,2.65-1.63,2.82-2.05.16-.42,1.42-1.42,2.8-2.23,1.38-.8,3.13-2.11,3.89-2.92.76-.8,1.75-1.46,2.19-1.46s1.82-.94,3.05-2.09c1.23-1.15,3.13-2.85,4.22-3.79,1.09-.94,2.99-2.64,4.22-3.79,1.23-1.15,4.04-3.62,6.25-5.49,2.21-1.87,4.69-4.3,5.5-5.39,2.47-3.33,11.15-12.79,18.08-19.7,3.68-3.68,4.52-4.53,9.06-9.29,1.02-1.07,2.12-2.57,2.44-3.34.32-.77,1.06-1.54,1.63-1.73.58-.18,1.2-.85,1.39-1.48.19-.63,1.1-1.97,2.03-2.98.93-1.01,2.08-2.42,2.56-3.14,1.08-1.62,4.15-5.21,6.64-7.75,1.04-1.06,2.26-2.67,2.73-3.58.47-.91,1.29-1.8,1.84-1.98.55-.17,1.14-.89,1.32-1.6.18-.71,1.03-2.05,1.89-2.99,3.19-3.46,6.25-7.51,7.21-9.55.54-1.15,1.44-2.37,2.01-2.7.57-.34,1.17-1.33,1.34-2.2.17-.87,1.14-2.51,2.16-3.63,1.01-1.12,2.19-2.88,2.61-3.91.43-1.03,1.21-2.18,1.75-2.55.53-.38,1.45-1.79,2.05-3.14.59-1.34,1.67-2.96,2.39-3.6.73-.63,1.66-2,2.08-3.04.42-1.04,1.36-2.45,2.09-3.13.73-.68,1.48-1.93,1.66-2.78.18-.84,1.16-2.36,2.16-3.37,1.01-1.01,2.05-2.63,2.32-3.61s1.07-2.47,1.78-3.32c.71-.85,1.77-2.62,2.35-3.94.58-1.32,1.58-2.74,2.22-3.17.66-.44,1.43-1.75,1.78-3.07.35-1.31,1.3-2.95,2.2-3.8.87-.82,1.84-2.32,2.16-3.33s1.11-2.42,1.77-3.14c1.16-1.28,3.38-5.7,3.38-6.74,0-.29.53-.89,1.17-1.35,1.68-1.18,1.7-10.88.02-17.79-1.13-4.66-2.23-16.81-2.24-24.74-.01-6.94-1.08-8.51-2.13-3.15"/>
    <path class="cls-2" d="M604.46,522.79c-.29.35-.7,1.29-.89,2.09-.2.79-1.02,1.91-1.83,2.49-.81.58-1.62,1.76-1.81,2.64-.19.88-1.13,2.37-2.08,3.33-.95.95-2.11,2.47-2.57,3.36-.46.9-1.41,2-2.1,2.46-.69.45-1.41,1.54-1.61,2.42-.19.87-1.11,2.45-2.05,3.49-.94,1.05-2.16,2.66-2.71,3.58-.56.92-1.61,2.15-2.34,2.73s-1.62,1.75-1.98,2.62c-.36.86-1.1,1.71-1.64,1.89-.55.17-1.48,1.27-2.07,2.43-.59,1.16-1.52,2.23-2.06,2.37-.54.14-1.13.76-1.31,1.38s-1.13,1.94-2.11,2.95c-.98,1.01-2.98,3.24-4.45,4.97-1.47,1.73-3.59,4.16-4.72,5.41-1.13,1.25-2.29,2.81-2.59,3.47-.3.66-1.12,1.46-1.82,1.78-.7.32-1.52,1.29-1.82,2.16-.3.88-1.23,1.94-2.09,2.39-.85.44-1.78,1.48-2.07,2.3-.32.92-1.09,1.7-2,2.01-.81.28-1.79,1.17-2.18,1.96-.39.79-1.36,1.81-2.16,2.27-.8.45-1.75,1.41-2.1,2.13-.35.72-1.28,1.61-2.06,1.99-.78.38-1.75,1.33-2.16,2.12-.41.79-1.33,1.71-2.06,2.04-.72.33-1.66,1.27-2.08,2.09-.42.82-1.36,1.76-2.08,2.09-.72.33-1.67,1.29-2.11,2.14-.44.85-1.5,1.78-2.37,2.09-.87.3-1.58.88-1.58,1.27,0,.86-2.15,2.99-3.02,2.99-.33,0-.97.7-1.41,1.56-.44.86-1.51,1.93-2.38,2.38-.87.45-1.81,1.34-2.1,1.97-.29.64-1.45,1.69-2.58,2.34-1.13.65-2.06,1.41-2.06,1.68s-1.35,1.41-3,2.53c-1.65,1.13-3.43,2.53-3.96,3.13-.53.59-1.63,1.23-2.45,1.41-.82.18-1.63.78-1.81,1.35-.18.56-1.18,1.46-2.24,2-1.05.54-2.38,1.51-2.96,2.16-.57.65-2.29,1.98-3.81,2.97-1.52.98-2.89,2.11-3.04,2.5-.15.39-1.19,1.08-2.31,1.53-2.25.9-2.29,1-1.48,3.34.58,1.68,1.78,2.3,5.86,3.02,1.09.19,2.64.9,3.44,1.58,3.59,3.03,10.9,3.36,13.73.6,3.24-3.14,7.91-6.8,9.33-7.3.78-.27,1.54-.91,1.7-1.43.16-.51,1.22-1.35,2.35-1.86,1.13-.51,2.2-1.37,2.37-1.91.17-.54.99-1.33,1.83-1.76.83-.43,2.31-1.55,3.27-2.48,3.36-3.24,8.26-7.18,8.93-7.18.37,0,1.28-.8,2.02-1.77.74-.97,1.95-1.92,2.68-2.11.76-.19,1.55-.9,1.83-1.63.27-.71,1.32-1.69,2.33-2.17,1.01-.48,1.83-1.15,1.83-1.47,0-.74,2.21-2.87,2.97-2.87.3,0,.85-.72,1.21-1.59.36-.88,1.34-1.95,2.17-2.38.83-.43,1.78-1.38,2.11-2.11.33-.73,1.25-1.66,2.03-2.07.79-.41,1.74-1.39,2.12-2.18.38-.79,1.35-1.75,2.16-2.14.81-.39,1.71-1.4,2-2.24.29-.84,1.18-1.87,1.97-2.28.79-.41,1.72-1.43,2.06-2.27.35-.84,1.2-1.79,1.91-2.11.7-.32,1.49-1.14,1.74-1.82.26-.68,4.06-4.94,8.45-9.47,6.74-6.95,8.1-8.62,8.68-10.67.38-1.34,1.36-3.84,2.19-5.57.96-2.01,1.77-4.95,2.25-8.18.51-3.42,1.18-5.78,2.08-7.32.95-1.62,1.49-3.63,1.89-6.98.4-3.35,1.01-5.61,2.12-7.84,1.08-2.17,1.71-4.44,2.04-7.36.26-2.32.63-4.83.82-5.58.4-1.61-1.3-2.99-2.26-1.82"/>
  </g>
  <text class="cls-3" transform="translate(684.67 484.74)"><tspan class="cls-6" x="0" y="0">S</tspan><tspan class="cls-7" x="121.5" y="0">t</tspan><tspan class="cls-4" x="188.6" y="0">a</tspan><tspan class="cls-1" x="303.81" y="0">c</tspan><tspan x="403.91" y="0">k</tspan><tspan class="cls-4" x="504.5" y="0">m</tspan><tspan x="680.2" y="0">a</tspan><tspan class="cls-5" x="797.4" y="0">t</tspan><tspan class="cls-8" x="864.5" y="0">c</tspan><tspan x="964.6" y="0">h</tspan></text>
</svg>