<?xml version="1.0" encoding="UTF-8"?>
<svg id="Layer_1" data-name="Layer 1" xmlns="http://www.w3.org/2000/svg" viewBox="0 0 1134 1018.29">
  <defs>
    <style>
      .cls-1 {
        fill: #4cb648;
        fill-rule: evenodd;
        stroke: #fff;
        stroke-miterlimit: 10;
        stroke-width: 3px;
      }
    </style>
  </defs>
  <path class="cls-1" d="M601.74,134.43c-12.64.57-14.76.9-19.04,2.92-2.65,1.25-8.76,3.08-13.57,4.06-5.79,1.18-9.41,2.41-10.7,3.62-1.12,1.06-4.53,2.38-7.98,3.11-10.76,2.26-9.93,6.77.93,5.06,3.37-.53,8.92-1.23,12.33-1.55,3.41-.32,7.54-1.13,9.19-1.8,4.79-1.97,28.75-1.62,38.2.55,4.14.95,9.72,1.74,12.4,1.76,7.57.04,15.23,1.59,17.97,3.62,1.37,1.02,4.44,2.43,6.81,3.14,2.37.71,5.91,2.62,7.86,4.26,2.09,1.75,4.98,3.2,7.06,3.54,2.1.34,4.35,1.48,5.6,2.83,1.15,1.25,3.58,3.06,5.4,4.02,1.82.96,3.95,2.72,4.72,3.91.78,1.19,2.78,2.97,4.44,3.96,1.67.99,3.03,2.4,3.03,3.14s1.57,2.15,3.48,3.13c1.91.98,3.74,2.59,4.05,3.58.31.99,1.69,2.38,3.06,3.09,1.37.71,3.32,2.7,4.34,4.43,1.02,1.73,2.28,3.14,2.81,3.14s1.58,1.48,2.33,3.3c.76,1.82,2.89,5.02,4.74,7.13,1.85,2.11,3.63,4.92,3.96,6.26.33,1.33,1.74,3.62,3.14,5.09,1.91,2,2.77,4.06,3.44,8.29.57,3.57,1.84,7.05,3.48,9.54,1.89,2.87,2.88,5.88,3.68,11.27.6,4.04,1.78,8.55,2.61,10.02,2.69,4.74,3.59,8.52,4.55,19.02.68,7.47,1.51,11.54,3.02,14.76,5.92,12.65,5.93,94.8.02,108.9-1.54,3.67-2.21,7.4-2.62,14.68-.97,16.92-2.17,24.54-4.5,28.55-1.53,2.63-2.4,6.06-3.07,12-.68,6.04-1.66,9.85-3.6,13.89-1.86,3.89-2.94,7.91-3.56,13.33-.6,5.25-1.71,9.49-3.43,13.1-1.39,2.93-3.16,8.66-3.92,12.74-.93,4.96-2.08,8.22-3.46,9.87-1.36,1.63-2.46,4.71-3.22,9.04-1.24,7.06-2.03,9.12-4.55,11.91-.92,1.02-2.03,4.43-2.6,8-.54,3.42-1.75,7.42-2.69,8.89-2.73,4.28-4.29,7.74-5.29,11.77-.52,2.07-1.93,4.84-3.14,6.15-1.21,1.31-2.43,3.42-2.71,4.68-1.26,5.77-2.48,8.66-4.42,10.54-1.16,1.11-2.33,3.11-2.62,4.44-1.02,4.8-3.27,10.12-4.48,10.58-.68.26-1.88,2.72-2.68,5.47-.89,3.08-2.45,5.93-4.05,7.43-1.43,1.34-3,3.95-3.5,5.8-.49,1.85-2.06,4.83-3.47,6.63-1.41,1.8-3.05,4.4-3.64,5.78-.58,1.38-2.12,3.71-3.41,5.18-1.29,1.47-3.05,4.58-3.91,6.93-.86,2.34-2.5,4.87-3.64,5.63-1.14.75-2.55,2.84-3.12,4.63-.57,1.79-1.92,4.26-3,5.48-1.08,1.22-3.04,4.12-4.35,6.43-1.31,2.31-3.12,4.6-4.01,5.08-.9.48-2.3,2.29-3.12,4.03-.82,1.73-2.44,3.78-3.6,4.54-1.16.76-2.36,2.51-2.66,3.88-.3,1.37-1.56,3.44-2.8,4.6-1.24,1.16-2.82,3.21-3.51,4.55-1.36,2.63-7.26,9.9-12.09,14.9-1.65,1.71-3.68,4.21-4.51,5.56-.83,1.34-2.11,2.44-2.86,2.44s-1.94,1.41-2.66,3.14c-.72,1.73-2.31,3.6-3.53,4.16-1.22.56-2.83,2.29-3.56,3.85-.74,1.56-2.32,3.28-3.53,3.83-1.2.55-2.58,2.02-3.05,3.27-.47,1.25-2.03,2.94-3.46,3.76-1.43.82-3.22,2.8-3.98,4.41-.76,1.6-1.77,2.91-2.25,2.91s-2.44,1.6-4.37,3.56c-1.93,1.96-4.13,3.56-4.89,3.56s-1.96,1.39-2.67,3.08c-.83,1.99-2.07,3.28-3.52,3.64-1.23.31-3.03,1.91-4,3.56-.97,1.65-2.74,3.24-3.95,3.55-1.26.32-2.62,1.61-3.22,3.06-.57,1.38-2.22,3-3.66,3.6-1.44.6-3.21,2.23-3.93,3.63-.72,1.4-1.71,2.54-2.21,2.54s-2.77,1.81-5.07,4.03c-10.3,9.93-11.59,11.09-12.45,11.09-.5,0-2.72,1.56-4.92,3.48-2.2,1.91-5.24,3.75-6.75,4.08-1.65.36-3.13,1.44-3.7,2.68-.52,1.14-2.12,2.57-3.55,3.16-1.44.6-4.47,2.64-6.75,4.55-2.28,1.91-5.25,3.7-6.59,3.98-4.68.98-2.65,7.68,2.77,9.14,7.63,2.06,16.58,3.35,18.01,2.6.82-.43,2.27-.79,3.21-.79s3.34-1.58,5.33-3.51c1.98-1.93,4.91-4.19,6.52-5.02,1.61-.83,3.98-2.65,5.27-4.05,1.3-1.4,3.18-2.54,4.19-2.54s2.71-1.2,3.79-2.66c1.08-1.46,2.69-2.89,3.6-3.18s3.88-2.49,6.62-4.9c2.74-2.41,5.52-4.38,6.17-4.38s2.22-1.16,3.48-2.59c1.26-1.42,3.31-2.84,4.54-3.15,2.24-.57,26.84-24.54,26.84-26.16,0-.48.81-1.12,1.8-1.44.99-.32,2.77-2.11,3.95-3.99,1.18-1.88,2.97-3.68,3.96-3.99,1-.32,2.42-1.74,3.15-3.17.73-1.42,2.52-3.2,3.98-3.96,1.45-.75,2.64-1.89,2.64-2.53,0-1.42,3.71-5.02,5.18-5.02.59,0,1.32-.7,1.63-1.56.8-2.28,3.95-5.56,5.33-5.56.66,0,1.56-.97,2.02-2.16.45-1.19,2.08-3.09,3.62-4.22,1.54-1.13,3.15-2.98,3.58-4.1.43-1.12,1.97-2.72,3.42-3.56,1.54-.88,2.87-2.53,3.18-3.95.29-1.34,1.57-3.26,2.85-4.26,1.27-1,3.08-3.11,4.02-4.68,1.65-2.75,6.18-8.14,12.61-15.01,1.68-1.8,3.06-3.83,3.06-4.51s.97-2.16,2.16-3.28c1.19-1.12,3.19-4.15,4.45-6.74,1.26-2.58,2.86-4.92,3.56-5.18s2.28-2.49,3.52-4.94c1.24-2.45,2.99-4.85,3.91-5.34.91-.49,1.88-2,2.16-3.37.27-1.36,2.32-4.61,4.55-7.22,2.22-2.61,4.04-5.32,4.04-6.04s1.01-2.32,2.25-3.55c1.23-1.24,3.02-4.29,3.96-6.78.94-2.49,2.92-5.64,4.4-6.99,1.47-1.35,2.68-3.31,2.68-4.35,0-2.4,1.36-5,4.55-8.67,1.38-1.6,2.77-4,3.07-5.33.31-1.34,1.68-3.87,3.05-5.64,1.37-1.76,3.16-5.24,3.96-7.72.81-2.48,2.23-5.2,3.17-6.05.93-.85,2.49-4.12,3.46-7.27.97-3.15,2.75-6.9,3.96-8.34,1.2-1.44,2.61-4.29,3.12-6.35,1.22-4.9,3.31-9.52,4.31-9.52s2.53-3.84,3.29-8.22c.32-1.84,1.68-4.73,3.03-6.44,1.61-2.03,2.83-5.1,3.54-8.88.63-3.35,2.14-7.38,3.58-9.56,1.37-2.08,3.13-6.57,3.92-9.99.85-3.69,2.26-7.12,3.48-8.44,1.41-1.54,2.5-4.57,3.51-9.74.86-4.43,2.33-8.8,3.58-10.67,1.17-1.74,2.39-5.16,2.73-7.6,1.19-8.72,2.45-13.1,4.28-14.94,1.4-1.4,2.25-4.33,3.45-11.93,1.01-6.38,2.39-11.6,3.78-14.27,1.77-3.41,2.36-6.39,3.1-15.79,1.01-12.69,1.52-15.08,4.36-20.51,1.63-3.11,2.03-6.02,2.75-19.87.98-18.89,1.19-20.38,4.26-29.82l2.31-7.11.04-37.34.04-37.34-2.33-4c-2.91-4.99-3.38-7.02-4.29-18.5-.59-7.36-1.09-9.59-2.53-11.14-2.56-2.75-3.51-5.73-4.59-14.58-.71-5.77-1.53-8.62-3.17-11.01-1.45-2.12-2.69-5.9-3.61-11.11-.99-5.54-2-8.56-3.41-10.12-1.1-1.22-2.81-3.82-3.79-5.78-2.1-4.16-12.94-14.17-17.37-16.02-1.69-.71-3.59-2.02-4.23-2.92-.64-.9-3.43-2.67-6.18-3.93-2.76-1.26-5.45-3.1-5.97-4.08-.52-.98-2.45-2.27-4.28-2.86-1.83-.59-4.32-2-5.54-3.14-1.22-1.14-4.21-2.94-6.64-4-2.44-1.06-5.31-2.74-6.38-3.72-1.07-.98-4.96-2.5-8.66-3.39-4.05-.97-7.75-2.48-9.34-3.83-3.15-2.66-3.98-2.92-11.78-3.68-4.13-.41-7.63-1.43-11.07-3.25-7.27-3.84-27.34-4.94-61.78-3.38"/>
  <path class="cls-1" d="M528.87,185.14c-5.54.43-9.95,1.23-11.17,2.04-2.59,1.7-10.21,3.83-16.44,4.59-3.3.4-5.59,1.27-7.09,2.67-3.5,3.28-6.84,4.14-17.22,4.42-9.3.25-9.76.35-11.38,2.6-.93,1.28-2.85,2.94-4.26,3.67-6.07,3.15-2.01,8.83,4.71,6.56,2.86-.97,10.21-1.98,18.84-2.61,7.79-.57,15.37-1.54,16.85-2.16,1.73-.73,3.43-.86,4.76-.37,2.75,1.02,20.01,2.52,29.17,2.53,8.79,0,14.85,1.38,16.49,3.73.74,1.06,3.36,2.21,6.84,3.01,6.92,1.59,10.35,2.93,11.19,4.38.35.61,2.71,2.15,5.23,3.42,2.52,1.27,4.83,3.1,5.14,4.05.31,1,1.69,1.99,3.26,2.33,1.69.37,3.26,1.57,4.17,3.17.8,1.42,2.71,2.99,4.25,3.51,3.29,1.1,13.73,11.52,17.3,17.27,1.37,2.21,2.91,4.02,3.42,4.02s1.55,1.5,2.31,3.33c.76,1.83,2.48,4.33,3.84,5.56,1.35,1.22,3.14,4.02,3.96,6.22.83,2.2,2.24,4.8,3.14,5.78.9.98,2.48,4.04,3.51,6.81,1.03,2.77,2.47,5.53,3.21,6.15,2.2,1.83,3.05,4.06,4.35,11.49.68,3.88,2.03,8.17,2.99,9.53,1.81,2.55,3.16,8.28,4.14,17.58.31,2.93,1.49,7.17,2.63,9.41,3.55,7.02,4.18,17.62,3.73,63.61-.42,43.21-.74,47.1-4.44,54.2-.79,1.52-1.86,6.94-2.38,12.05-1.06,10.44-1.67,12.99-4.3,18.08-1.22,2.36-2.19,6.83-2.87,13.32-1.09,10.3-1.86,13.28-4.1,15.76-.75.84-2.14,5.84-3.08,11.11-1.18,6.65-2.37,10.55-3.86,12.72-1.49,2.16-2.45,5.33-3.12,10.22-.53,3.9-1.7,8.49-2.61,10.2-3.86,7.29-4.44,8.63-5.33,12.21-.52,2.07-1.93,4.84-3.14,6.15-1.21,1.31-2.43,3.42-2.71,4.68-1.57,7.04-2.32,9.01-3.84,10.08-1.97,1.38-3.26,4.24-4.01,8.9-.3,1.84-1.65,4.64-2.99,6.22-1.35,1.58-2.96,4.64-3.59,6.82-.63,2.17-2.3,5.04-3.72,6.37-1.42,1.33-3.19,4.15-3.93,6.25-.74,2.11-2.09,4.64-3,5.63-.91.99-2.68,3.96-3.94,6.59-1.25,2.64-3.09,5.36-4.07,6.05-.99.69-1.79,1.85-1.79,2.58,0,2.16-3.43,8.23-5.18,9.18-.9.48-2.33,2.7-3.17,4.92-.85,2.22-2.24,4.54-3.1,5.15-.86.61-2.22,2.51-3.02,4.22-.81,1.71-3.06,4.86-5.01,7-1.95,2.14-3.55,4.43-3.55,5.08s-1.16,2.06-2.59,3.12c-1.42,1.06-2.84,2.91-3.14,4.11-.64,2.58-7.84,12.48-12.87,17.71-1.95,2.03-3.55,4.06-3.55,4.52s-1.01,1.3-2.23,1.86c-1.23.56-2.6,2-3.06,3.19-.45,1.2-2.07,3.1-3.6,4.23-1.53,1.13-3.31,3.32-3.95,4.86-.64,1.54-2.01,3.07-3.04,3.4-1.03.33-2.44,1.96-3.14,3.64-.7,1.68-2.19,3.47-3.32,3.98-1.13.52-2.73,2.12-3.55,3.56-.83,1.45-2.52,3.02-3.77,3.49-1.25.48-2.64,1.84-3.08,3.03-.48,1.26-2.06,2.61-3.8,3.24-1.64.6-3.65,2.25-4.46,3.67-.81,1.42-2.67,3.01-4.12,3.51-1.45.51-2.89,1.7-3.19,2.65-.3.95-1.61,2.41-2.91,3.24-1.3.83-4.96,4.13-8.13,7.32-3.17,3.19-7.35,6.78-9.3,7.96s-4.67,3.08-6.05,4.21c-1.38,1.13-3.57,2.32-4.87,2.63-1.3.32-4.03,2.09-6.05,3.94-2.07,1.9-5.03,3.62-6.76,3.95-1.86.35-3.77,1.53-4.85,3-.99,1.35-3.37,2.9-5.39,3.5-4.56,1.37-4.67,1.61-2.77,6.03l1.57,3.66,7.11,1.04c9.45,1.39,15.59.55,17.93-2.43.98-1.25,3.06-3.05,4.62-4,1.56-.95,4.38-3.06,6.27-4.68,1.88-1.62,4.51-3.18,5.84-3.48s3.29-1.71,4.35-3.16c1.07-1.44,2.5-2.63,3.18-2.63s3.16-1.66,5.49-3.69c2.34-2.03,5.45-4.19,6.92-4.81,1.47-.62,3.64-2.16,4.82-3.42,1.18-1.26,2.65-2.3,3.26-2.3,2.58,0,14.19-11.16,47.17-45.34,7.31-7.58,14.86-15.39,16.78-17.35,1.91-1.97,3.74-4.41,4.07-5.43.32-1.02,1.77-2.91,3.22-4.21,1.45-1.3,2.64-2.93,2.64-3.64s1.99-3.56,4.43-6.35c2.44-2.79,4.43-5.4,4.43-5.8s1.59-2.3,3.54-4.24c1.95-1.94,3.54-4.08,3.54-4.76s1.18-2.37,2.62-3.75c1.44-1.38,2.87-3.68,3.18-5.11.31-1.43,1.95-3.98,3.64-5.68,1.69-1.7,3.61-4.37,4.27-5.95.66-1.57,2.21-3.81,3.44-4.97,1.24-1.16,2.5-3.28,2.82-4.72.31-1.43,1.95-3.99,3.63-5.68,1.69-1.69,3.65-4.76,4.38-6.81.72-2.06,2.06-4.55,2.97-5.54.91-.99,2.68-3.96,3.94-6.59,1.25-2.64,3.09-5.36,4.07-6.05.99-.69,1.79-1.86,1.79-2.59,0-2.18,2.69-6.85,5.42-9.41,1.45-1.36,2.55-3.32,2.55-4.54,0-3.35,1.81-7.97,4.11-10.45,1.15-1.25,2.09-2.88,2.09-3.62,0-2.89,2.81-10.63,4.4-12.12.92-.86,2.46-4.42,3.43-7.9,1.9-6.89,3.33-10.09,4.5-10.09,1.06,0,2.51-4.16,3.16-9.06.3-2.29,1.6-5.69,2.87-7.56,1.28-1.86,3.03-6.34,3.9-9.95.87-3.61,2.56-8.01,3.76-9.78,1.41-2.07,2.4-5.11,2.78-8.55.99-8.82,2.17-13.17,4.48-16.53,1.65-2.41,2.41-5.14,3.09-11.08,1.13-9.97,1.5-11.46,4.12-16.54,1.74-3.38,2.3-6.35,3.02-16,.64-8.53,1.51-13.67,3.1-18.32,5.01-14.59,5.7-109.3.85-116.9-1.79-2.8-3.13-8.4-4.13-17.25-.6-5.35-1.66-9.27-3.5-13.06-1.45-2.98-2.64-6.02-2.64-6.76-.01-2.98-1.96-8.1-4.01-10.56-1.2-1.43-2.99-5.24-3.98-8.46-.99-3.22-2.79-6.92-3.99-8.22-1.2-1.3-2.18-2.92-2.18-3.6,0-1.9-3.14-7.64-5.2-9.51-1.02-.92-2.1-3.05-2.42-4.72-.35-1.84-1.53-3.76-3.01-4.85-1.34-.99-3.35-3.77-4.47-6.17-1.34-2.87-3.12-5-5.21-6.23-3.68-2.18-9.28-6.81-14.53-12.03-2.04-2.02-4.56-3.94-5.61-4.26-1.05-.32-2.52-1.5-3.25-2.63-.96-1.47-2.87-2.38-6.77-3.21-2.99-.64-7.14-2.3-9.24-3.69-2.67-1.77-6.59-3.09-13.02-4.39-5.06-1.02-10.04-2.39-11.06-3.04-4.67-2.98-26.67-3.93-49.81-2.14"/>
  <path class="cls-1" d="M416.22,241.78c-2.86,1.95-8.8,8.35-8.83,9.52-.01.5-.89,1.3-1.95,1.78-1.06.48-2.69,2.38-3.63,4.21-.94,1.83-2.26,3.33-2.93,3.33s-2.23,1.58-3.44,3.52c-1.22,1.93-3.01,3.95-3.99,4.47-.98.52-2.38,2.13-3.13,3.58-.74,1.44-2.49,3.22-3.89,3.94-1.4.72-2.79,2.32-3.1,3.55-.31,1.23-1.75,3.12-3.2,4.2-1.45,1.08-2.64,2.52-2.64,3.2s-1.4,2.7-3.12,4.5c-3.97,4.17-10.09,11.92-12.42,15.75-.99,1.63-2.89,3.82-4.21,4.86-1.32,1.04-2.4,2.66-2.4,3.61s-1.34,3.21-2.98,5.05c-1.64,1.83-3.63,4.6-4.41,6.15-.79,1.54-2.44,3.61-3.67,4.58-1.23.97-2.83,3.18-3.55,4.91-.72,1.73-2.07,3.67-2.99,4.32-.93.65-2.27,2.58-2.99,4.28-.71,1.7-2.75,4.84-4.53,6.96-1.78,2.13-3.49,4.93-3.8,6.22-.31,1.29-1.66,3.61-2.99,5.15s-3.11,4.62-3.96,6.86c-.85,2.24-2.42,4.64-3.49,5.34-1.07.7-2.42,2.89-3.01,4.86-.59,1.97-2.46,5.25-4.16,7.29-1.7,2.04-3.34,4.77-3.64,6.06-.3,1.29-1.49,3.36-2.63,4.6-1.14,1.24-3.02,4.84-4.17,8-1.15,3.17-3.11,7.24-4.35,9.06-1.24,1.82-2.54,4.8-2.88,6.64-.72,3.84-2.83,8.28-3.93,8.28-.97,0-2.5,3.91-3.27,8.33-.33,1.89-1.71,4.71-3.08,6.27-1.55,1.77-2.96,4.91-3.75,8.34-.7,3.03-2.27,7.01-3.51,8.84-1.23,1.83-2.91,6.43-3.72,10.22-.89,4.13-2.3,7.87-3.51,9.33-1.26,1.52-2.45,4.79-3.16,8.66-1.23,6.75-2.04,8.83-4.49,11.56-.96,1.06-2.15,4.93-2.96,9.65-.81,4.65-2.25,9.4-3.54,11.6-1.61,2.76-2.42,6.02-3.14,12.57-.73,6.69-1.6,10.15-3.6,14.18-2.13,4.3-2.81,7.21-3.52,14.96-1.02,11.12-2.01,15.36-4.67,19.87-2.26,3.85-2.83,15.36-.85,17.35,2.29,2.31,12.53,1.46,16.75-1.4,4.56-3.08,5.31-5.24,6.03-17.45.76-12.71,1.87-18.65,4.05-21.63,1.34-1.83,2.3-5.65,3.49-13.93,1.14-7.9,2.32-12.73,3.84-15.71,1.47-2.87,2.52-7.02,3.16-12.5,1.05-8.99,1.78-11.48,4.42-15.14.97-1.34,2.36-5.4,3.1-9.02.78-3.79,2.09-7.38,3.09-8.46,1.01-1.08,2.54-5.26,3.6-9.84,1.1-4.73,2.59-8.76,3.66-9.91,1.06-1.14,2.47-4.9,3.41-9.14.88-3.96,2.34-8.25,3.24-9.53,2.93-4.15,3.83-6.05,3.84-8.12.02-2.92,2.44-8.31,4.33-9.64.98-.68,2.09-3.34,2.79-6.66.73-3.47,2.05-6.53,3.55-8.26,1.31-1.51,2.88-4.87,3.49-7.46.61-2.6,2.07-5.86,3.24-7.25,1.17-1.39,2.93-5.07,3.92-8.17.99-3.1,2.77-7.05,3.96-8.78,1.19-1.73,2.81-5.04,3.6-7.34.79-2.31,2.12-4.7,2.96-5.3.84-.6,2.56-3.37,3.82-6.14s3.1-5.48,4.11-6.01c1-.54,2.24-2.55,2.76-4.46.51-1.91,2.29-5.11,3.95-7.1,1.66-1.99,3.47-4.99,4.01-6.66.55-1.67,1.97-3.68,3.17-4.46,1.19-.79,2.17-2.03,2.17-2.78,0-2.23,3.43-8.26,5.25-9.24.93-.5,2.18-2.41,2.76-4.25.58-1.84,1.95-4.34,3.03-5.56,1.08-1.22,3.06-4.15,4.39-6.5,1.34-2.35,3.01-4.5,3.73-4.78.72-.28,2.26-2.4,3.43-4.72,1.17-2.32,2.74-4.46,3.47-4.74.74-.28,1.97-2.03,2.74-3.89.77-1.85,2.53-4.57,3.91-6.04,1.38-1.47,3.15-3.94,3.93-5.48.78-1.55,2.59-3.66,4.02-4.68,1.43-1.02,2.86-3.05,3.18-4.5.32-1.45,1.47-3.35,2.55-4.21,1.09-.86,3.15-3.67,4.58-6.23,1.43-2.56,2.89-4.66,3.24-4.67,1.03,0,4.35-3.84,5.19-6,.43-1.1,1.32-2,1.99-2,1.82,0,4.43-3.3,3.84-4.86-.67-1.74-2.21-1.67-5.01.24"/>
  <path class="cls-1" d="M450.32,240.77c-7.28.9-9.88,2.15-11.35,5.49-.79,1.79-2.87,4.78-4.62,6.65-4.77,5.07-3.78,5.56,12.64,6.23,15.32.63,20.61,1.55,23.91,4.16,1.2.95,3.64,1.97,5.41,2.26,5.72.96,8.68,2.17,10.78,4.42,1.13,1.21,2.71,2.2,3.51,2.2,2.73,0,10.19,2.85,11.57,4.43.76.86,2.67,2.24,4.25,3.06,1.58.82,3.31,2.46,3.85,3.65.54,1.19,1.62,2.37,2.4,2.62,4.09,1.32,23.3,22.23,24.33,26.49.33,1.36,2,3.95,3.71,5.77,1.71,1.82,3.58,4.91,4.15,6.87.57,1.96,2.11,4.58,3.43,5.84,2.2,2.1,4.31,7.33,4.33,10.71,0,.78.96,2.46,2.14,3.73,1.47,1.59,2.73,4.94,4.06,10.8,1.06,4.67,2.28,8.49,2.72,8.49,2.2,0,3.53,5.87,4.38,19.29.49,7.72,1.36,15.65,1.94,17.6,1.36,4.6,1.99,37.92.8,42.69-.49,1.97-1.32,11.77-1.84,21.78-1.17,22.54-2.17,29.64-4.82,34.2-1.59,2.74-2.29,5.92-3.05,13.79-.8,8.32-1.47,11.21-3.63,15.56-1.89,3.81-2.92,7.62-3.59,13.33-1.2,10.18-2.13,13.56-4.38,15.96-1.02,1.08-2.23,4.24-2.78,7.19-1.02,5.55-2.98,10.18-4.29,10.18-.43,0-1.51,3.08-2.39,6.84-.89,3.76-2.45,7.86-3.49,9.11-2.58,3.12-3.58,5.25-4.28,9.18-.33,1.84-1.79,4.7-3.23,6.36-1.45,1.65-3.2,4.89-3.89,7.2-.69,2.31-2.08,5.07-3.08,6.15-1.01,1.07-2.82,4.5-4.04,7.61-1.22,3.11-3.03,6.54-4.03,7.61-1.28,1.36-2.22,4.41-3.14,10.15-.73,4.57-2.26,10.03-3.44,12.33-1.26,2.46-2.35,6.48-2.67,9.91-1.23,13.15-2.3,17.79-4.4,19.18-3.55,2.34-4.63,12.83-1.32,12.83.39,0,1.37-1.75,2.19-3.89.87-2.27,2.34-4.28,3.53-4.83,1.18-.54,2.29-2.04,2.62-3.54.31-1.43,2.34-4.69,4.51-7.24,2.17-2.55,3.94-4.99,3.94-5.42s1.4-2.19,3.1-3.9c1.71-1.71,3.1-3.67,3.1-4.35,0-1.5,7.68-12.43,11.35-16.15,1.51-1.53,2.87-4.07,3.2-5.95.31-1.81,1.92-4.91,3.57-6.89,1.65-1.98,3.27-4.9,3.6-6.49.33-1.59,1.78-4.39,3.21-6.22,1.44-1.83,3.15-5.13,3.81-7.32.66-2.19,2.2-5.18,3.42-6.64,1.22-1.46,2.89-4.67,3.7-7.12.81-2.46,2.16-4.97,3-5.58,1.47-1.07,3.81-6.56,4.9-11.49.29-1.31,1.54-3.59,2.78-5.07,1.5-1.79,2.55-4.53,3.14-8.19.9-5.63,2.91-10.59,4.28-10.59.42,0,1.45-2.9,2.27-6.44,2.2-9.44,2.17-9.36,4.41-12.02,1.37-1.64,2.52-4.91,3.44-9.83.76-4.06,2.38-9.48,3.59-12.06,1.59-3.36,2.48-7.42,3.18-14.39,1.12-11.21,2.16-15.74,3.95-17.23,1.65-1.37,2.8-7.55,4-21.51.53-6.19,1.57-13.39,2.31-16,.74-2.61,1.75-6.35,2.25-8.31,3.26-12.83,1.62-71.44-2.26-80.93-1.26-3.08-2.61-8.94-3.18-13.78-.6-5.16-1.58-9.27-2.53-10.63-2.05-2.94-3.32-6.44-4.67-12.8-.61-2.89-1.96-6.29-3.01-7.56-1.05-1.27-2.64-4.51-3.55-7.2-.91-2.69-2.72-6.09-4.03-7.56-1.31-1.47-2.65-3.56-2.98-4.65-.33-1.09-1.94-3.59-3.57-5.56-1.64-1.97-3.47-5.06-4.06-6.87-.6-1.81-2.32-4.57-3.83-6.13-1.51-1.56-4.74-5.06-7.18-7.78-2.44-2.72-4.94-4.96-5.57-4.98s-2.7-1.64-4.61-3.6c-1.91-1.96-3.9-3.56-4.43-3.56-1.19,0-11.94-7.92-15.5-11.43-2.06-2.03-3.78-2.74-7.68-3.2-3.41-.4-6.34-1.46-9.09-3.29-5.25-3.49-43.9-5.83-61.18-3.7"/>
  <path class="cls-1" d="M351.39,284.52c-1.79.79-4.09,2.51-5.11,3.82-1.02,1.31-2.69,2.51-3.73,2.67-1.71.26-2.45,1.15-4.28,5.17-.33.73-1.67,1.86-2.96,2.49-1.3.64-2.35,1.87-2.35,2.73s-1.84,3.49-4.08,5.84c-2.24,2.35-4.64,5.62-5.33,7.27-.69,1.65-1.72,3-2.29,3-1.38,0-16.29,15.53-18.98,19.78-1.16,1.83-2.52,3.33-3.02,3.33s-1.63,1.71-2.53,3.79c-.89,2.08-2.3,4.36-3.13,5.05-.83.69-2.09,2.38-2.79,3.76-.71,1.37-3.07,4.52-5.26,6.98-2.18,2.47-3.97,5.04-3.97,5.72s-.96,2-2.14,2.93c-1.18.93-2.72,3.09-3.43,4.8-.71,1.71-2.53,4.52-4.03,6.24-1.51,1.72-3.52,4.96-4.47,7.19-.95,2.23-2.3,4.39-2.98,4.8-.69.41-2.28,3.02-3.53,5.78-1.25,2.77-3.09,5.48-4.1,6.01-1,.54-2.24,2.55-2.76,4.46-.51,1.91-2.34,5.17-4.07,7.24-1.72,2.07-3.36,4.89-3.63,6.27-.27,1.38-1.5,3.59-2.71,4.91-1.22,1.32-2.94,4.94-3.82,8.04-.88,3.1-2.61,6.84-3.84,8.31-2,2.38-4.06,7.58-4.07,10.27,0,.54-1.2,2.5-2.66,4.34-1.46,1.84-3.08,5-3.6,7.01-1.62,6.31-1.8,6.72-3.87,9.22-1.26,1.52-2.46,4.8-3.16,8.66-1.4,7.65-2.3,10.15-4.47,12.48-1.09,1.17-2.05,4.26-2.71,8.68-.73,4.93-1.75,7.98-3.62,10.81-1.74,2.64-2.91,5.94-3.53,9.99-.52,3.33-2.06,8.25-3.43,10.94-2.09,4.11-2.65,6.73-3.5,16.45-1.17,13.49-2.02,17.8-4.4,22.41-2.16,4.17-3.92,23.01-2.52,27.03,1.48,4.26,8.28,3.78,12.48-.89,3.67-4.08,3.88-4.93,5.09-20.55,1.01-12.98,2.06-18.28,4.11-20.58.72-.81,1.68-4.41,2.14-8,2.29-17.93,2.69-19.97,4.38-22.29.97-1.33,2.2-4.53,2.72-7.11,2.23-10.99,2.79-12.79,4.5-14.63,1.04-1.12,2.54-5.08,3.52-9.33,1.1-4.73,2.45-8.19,3.78-9.62,1.36-1.46,2.44-4.29,3.16-8.23.66-3.63,2.08-7.5,3.6-9.79,1.47-2.22,3.07-6.51,3.87-10.37.78-3.76,2.12-7.38,3.12-8.46.97-1.03,2.58-4.55,3.59-7.82,1.01-3.27,2.58-6.48,3.5-7.12.92-.65,2.5-3.54,3.51-6.42,1.01-2.88,2.77-6.27,3.91-7.52,1.14-1.26,2.56-3.99,3.15-6.08.59-2.08,2.25-5.14,3.69-6.78,1.44-1.65,2.63-3.54,2.64-4.21.03-2.17,3.25-8.41,5.49-10.66,1.28-1.29,2.43-3.75,2.79-5.98.41-2.6,1.53-4.72,3.57-6.76,1.69-1.69,3.22-4.31,3.54-6.05.32-1.69,1.41-3.83,2.42-4.75,1.01-.92,2.41-2.77,3.1-4.11.69-1.34,3.04-4.45,5.22-6.92,2.18-2.47,3.97-5.04,3.97-5.72s.96-2,2.14-2.93c1.18-.93,2.71-3.07,3.41-4.75.7-1.68,2.9-4.94,4.88-7.24,1.98-2.3,3.84-4.93,4.13-5.84.29-.91,1.51-2.19,2.7-2.83,1.2-.64,2.6-2.47,3.12-4.05.52-1.58,2.05-4.04,3.41-5.46,1.35-1.42,3.22-4.44,4.16-6.72,1.16-2.82,2.36-4.3,3.76-4.65,1.26-.32,2.56-1.72,3.35-3.63.74-1.78,2.24-3.47,3.52-3.96,1.22-.47,2.87-1.98,3.67-3.37.79-1.39,2.54-3.16,3.89-3.93,1.75-1.01,2.52-2.24,2.73-4.35.24-2.45.76-3.07,3.16-3.76,1.58-.45,2.88-1.34,2.88-1.98,0-1.88-1.14-2-4.59-.48"/>
  <path class="cls-1" d="M414.98,290.38c-2.24,1.35-4.13,3.5-5.41,6.15-1.08,2.24-3.01,5.14-4.3,6.43-4.03,4.04-3.45,4.74,4.98,6.1,1.84.3,4.63,1.64,6.2,2.99,1.57,1.35,4.6,2.96,6.74,3.58,2.13.62,4.95,2.31,6.27,3.75,1.31,1.44,3.95,3.05,5.87,3.58,3.39.92,8.55,5.77,22.14,20.77,2.21,2.44,5.2,5.73,6.63,7.31,1.43,1.57,2.61,3.69,2.61,4.71s1.05,2.89,2.32,4.17c2.57,2.58,4.77,7.21,4.77,10.05,0,1.02,1.05,2.9,2.32,4.18,2.71,2.72,4.32,6.32,5.18,11.56.34,2.06,1.78,5.22,3.2,7.01,1.42,1.8,2.59,3.71,2.6,4.25.08,4.48,2.11,13.8,3.49,16.05,2.91,4.73,3.7,13.19,4.35,46.85l.63,32.57,2.39,3.46c2.5,3.63,3.6,8.05,4.63,18.73.38,3.97,1.22,7.21,2.17,8.44,2.18,2.82,3.38,7.06,4.43,15.7,1.45,11.92,2.27,11.35,3.57-2.49.89-9.44,1.57-11.9,5.01-18.2.82-1.5,1.71-6.45,2.17-12,.47-5.69,1.67-12.28,3.03-16.56,4.8-15.13,5.14-66.37.53-79.56-.94-2.69-2.35-9.85-3.12-15.92-1.17-9.15-1.83-11.66-3.88-14.76-1.44-2.18-2.95-6.28-3.65-9.86-.87-4.49-1.84-6.78-3.61-8.56-1.33-1.33-3.1-4.6-3.94-7.26-.83-2.66-2.1-5.06-2.81-5.33-.71-.27-2.09-2.36-3.06-4.63-.97-2.27-2.81-5.38-4.09-6.9-1.28-1.52-3.03-4.43-3.9-6.47-.92-2.15-2.39-3.96-3.5-4.31-1.05-.34-2.46-1.87-3.13-3.42-.67-1.54-3.24-4.6-5.72-6.8-2.48-2.2-5.99-5.5-7.8-7.33-1.81-1.83-3.98-3.33-4.82-3.33s-3.06-1.39-4.94-3.1c-2.6-2.36-4.85-3.4-9.38-4.35-3.84-.81-6.8-2.04-8.32-3.44-1.9-1.76-4.26-2.49-12.1-3.72-5.36-.84-10.54-1.67-11.52-1.84-.97-.17-3.32.62-5.22,1.76"/>
  <path class="cls-1" d="M843.68,318.83c-.28,1.97-.91,14.97-1.38,28.91-.89,26.09-1.16,28.18-4.28,34.22-1.31,2.54-2.12,6.64-2.81,14.36-1.04,11.55-1.48,13.62-4.28,19.86-1.14,2.56-2.16,7.8-2.82,14.58-1.07,11.06-1.85,14.17-4.18,16.75-.77.85-2.14,5.45-3.04,10.22-.9,4.77-2.36,9.67-3.25,10.9-2.21,3.05-2.75,4.7-4.15,12.76-.77,4.4-2.03,8.18-3.42,10.22-1.47,2.16-2.64,5.83-3.52,11.02-.97,5.76-1.9,8.48-3.57,10.46-1.37,1.64-2.66,4.79-3.31,8.09-.58,2.97-1.94,6.46-3.01,7.76-2.58,3.12-3.98,5.87-3.99,7.85-.01,3.1-1.9,8.41-3.59,10.11-.94.94-2.47,4.47-3.4,7.84-1.88,6.82-2.9,9.05-4.86,10.69-.73.61-1.78,3.3-2.34,5.98-.64,3.08-1.96,5.96-3.6,7.83-1.42,1.63-3.2,4.69-3.94,6.81-.75,2.12-2.12,4.67-3.05,5.67-.93,1-2.67,4.02-3.86,6.73-1.19,2.7-2.77,5.42-3.52,6.04-.74.62-2.07,3.15-2.96,5.62-.89,2.47-2.64,5.55-3.9,6.84-1.26,1.29-2.8,4.12-3.42,6.29-.62,2.17-2.31,5.06-3.76,6.42-1.45,1.36-3.02,3.87-3.49,5.58-.47,1.71-1.84,4.29-3.05,5.73-1.21,1.44-3.01,4.46-4,6.7-.99,2.24-2.77,4.72-3.97,5.51-1.19.78-2.17,2-2.17,2.69,0,1.85-3.17,7.78-4.95,9.26-.85.7-2.45,3.34-3.57,5.87-1.12,2.53-2.6,4.93-3.29,5.33-.7.4-2.15,2.81-3.23,5.36-1.08,2.54-2.92,5.25-4.08,6.01-1.16.76-2.91,2.95-3.88,4.87-.97,1.91-2.54,3.72-3.49,4.03-.96.3-1.97,1.68-2.28,3.08-.31,1.39-1.38,3.28-2.38,4.18-1,.9-3.04,3.45-4.53,5.65-1.49,2.2-4.03,5.32-5.66,6.93-1.62,1.61-2.95,3.46-2.95,4.12s-1.4,2.25-3.1,3.56c-1.71,1.3-3.1,2.98-3.1,3.73s-1.2,2.56-2.67,4.04c-1.47,1.47-3.13,3.54-3.69,4.6-1.1,2.06-6.95,9.12-12.69,15.31-1.95,2.1-5.14,5.61-7.09,7.79-1.95,2.19-4.01,4.45-4.57,5.03-.56.58-2.06,2.12-3.31,3.42-2.05,2.12-3.15,3.24-7.49,7.62-.66.67-2.15,2.16-3.3,3.32-1.15,1.16-3.99,3.8-6.32,5.88-2.33,2.08-9.22,8.54-15.31,14.34-15.92,15.19-19.85,18.76-20.56,18.76-.35,0-1.94,1.15-3.55,2.55-1.6,1.4-3.91,2.85-5.12,3.23-1.22.38-3.81,2.14-5.76,3.93-1.95,1.78-4.87,3.79-6.49,4.46-1.62.67-4.08,2.36-5.47,3.75-1.39,1.39-3.32,2.53-4.3,2.53s-2.63,1.2-3.67,2.67c-1.04,1.47-3.84,3.51-6.23,4.54-2.89,1.25-4.93,2.88-6.11,4.89-.97,1.66-2.26,3.02-2.87,3.02-2.88,0,1.21,1.84,6.61,2.98,3.32.7,7.51,2.32,9.39,3.63,2.58,1.8,4.89,2.49,9.57,2.88l6.16.52,3.66-3.45c7.39-6.96,11.77-10.56,14.69-12.07,1.64-.85,3.21-2.11,3.47-2.81.27-.7,2.3-1.96,4.51-2.81,2.27-.87,4.26-2.28,4.56-3.23.29-.93,1.6-2.36,2.9-3.18,1.3-.82,4.07-3.02,6.14-4.89,2.07-1.87,4.97-3.64,6.44-3.94,1.49-.3,3.45-1.63,4.44-3.02.97-1.37,3.14-2.94,4.81-3.5,1.67-.55,3.29-1.79,3.59-2.75.3-.96,1.62-2.4,2.92-3.21,2.71-1.67,4.99-3.75,13.68-12.47.73-.73,2.33-2.33,3.54-3.56,1.22-1.22,2.81-2.82,3.54-3.56s2.33-2.33,3.54-3.56c1.22-1.22,2.76-2.77,3.42-3.44.66-.67,2.12-2.12,3.25-3.23,1.12-1.11,7.02-7.22,13.12-13.57,6.09-6.36,11.35-11.83,11.69-12.16.7-.69,3.72-3.84,7.86-8.2,1.55-1.63,3.42-4.42,4.17-6.2.74-1.78,1.98-3.48,2.75-3.78.77-.3,2.17-2.04,3.1-3.88.93-1.83,2.94-4.48,4.45-5.89,1.52-1.41,3.52-4.03,4.45-5.83.93-1.8,2.47-3.52,3.43-3.82.95-.3,2.18-1.93,2.73-3.61.55-1.68,1.88-3.76,2.96-4.62,1.07-.86,2.88-3.17,4.02-5.12,2.38-4.09,6.02-8.63,11.39-14.23,2.07-2.16,3.76-4.52,3.76-5.26s1.16-2.2,2.59-3.26c1.42-1.06,2.83-2.88,3.12-4.05.29-1.17,1.9-3.65,3.58-5.51,1.67-1.86,3.85-5.26,4.83-7.55.98-2.3,2.37-4.4,3.09-4.67.72-.28,1.93-2.4,2.7-4.72.77-2.32,2.75-5.52,4.4-7.13,1.73-1.69,3.24-4.2,3.57-5.95.31-1.67,1.73-4.36,3.16-5.99,1.42-1.63,3.39-4.83,4.36-7.11.97-2.28,2.34-4.37,3.03-4.64.69-.27,2.1-2.82,3.14-5.67,1.13-3.12,2.76-5.76,4.07-6.62,1.38-.91,2.56-2.89,3.18-5.37.54-2.16,2.29-5.4,3.88-7.2,1.59-1.8,3.36-4.82,3.93-6.71.56-1.89,1.78-3.85,2.7-4.34.99-.53,2.26-2.98,3.11-6.02,2.05-7.31,3.07-9.68,4.91-11.35.89-.81,2.1-3.54,2.7-6.06,1.21-5.17,3.16-9.48,4.3-9.48,1.02,0,2.5-4.03,3.22-8.74.34-2.25,1.59-5.02,2.99-6.67,1.4-1.64,2.92-5.01,3.63-8.07.67-2.89,2.2-6.42,3.4-7.85,1.2-1.43,2.89-5.18,3.76-8.34.87-3.16,2.61-6.96,3.85-8.44,1.24-1.48,2.44-3.56,2.66-4.63.22-1.06.83-4.13,1.36-6.82.53-2.69,1.91-6.29,3.08-8,1.37-2.02,2.58-5.85,3.43-10.89.96-5.7,1.91-8.48,3.52-10.41,2.11-2.51,2.47-3.81,3.78-13.59.36-2.65,1.49-5.4,3.05-7.36,1.37-1.72,2.7-4.62,2.97-6.44.27-1.82.75-5.2,1.06-7.53.36-2.69,1.5-5.4,3.12-7.46,1.41-1.77,2.56-3.47,2.57-3.77.18-5.66,2.94-18.78,4.76-22.64,3-6.35,3.06-12.06.2-17.47-1.16-2.2-2.79-7.39-3.63-11.55-.96-4.8-2.42-8.94-3.99-11.35-1.41-2.16-2.89-6.1-3.42-9.16-.6-3.43-1.76-6.34-3.19-8.06-1.24-1.48-2.49-3.75-2.78-5.06-1.08-4.85-3.42-10.41-4.83-11.44-.8-.59-2.32-3.44-3.38-6.35-2.62-7.2-8.44-8.68-9.35-2.38"/>
  <path class="cls-1" d="M296.64,321.07c0,.49.6.89,1.33.89s1.33-.4,1.33-.89-.6-.89-1.33-.89-1.33.4-1.33.89"/>
  <path class="cls-1" d="M289.99,327.3c-.72,1.17.34,2.84,1.39,2.18,1.07-.67,1.07-3.07,0-3.07-.46,0-1.08.4-1.38.89"/>
  <path class="cls-1" d="M389.64,331.68c0,4.2-.13,4.43-3.08,5.5-2.8,1.02-5.78,4.97-5.78,7.68,0,.47-.99,1.84-2.19,3.05-1.2,1.21-3.05,4.45-4.1,7.2-1.06,2.77-2.85,5.62-4.01,6.39-1.16.76-2.1,1.87-2.11,2.47-.01,2.94-2.12,8.1-4.36,10.67-1.37,1.58-2.79,4.26-3.16,5.98-.86,4.04-2.47,7.14-4.79,9.25-1.03.93-1.86,2.13-1.87,2.66-.02,2.88-2.18,8.05-4.47,10.67-1.43,1.64-2.61,3.33-2.61,3.75-.02,2.63-2.22,7.9-4.33,10.35-1.61,1.87-2.87,4.82-3.63,8.47-.64,3.08-2.27,7.28-3.63,9.34-1.44,2.18-3.04,6.49-3.84,10.32-.83,4-2.11,7.37-3.26,8.6-1.13,1.2-2.57,4.95-3.58,9.3-1.06,4.58-2.5,8.26-3.89,9.91-1.21,1.44-2.2,2.89-2.21,3.22-.1,3.97-3,13.21-4.82,15.39-1.24,1.48-2.26,2.95-2.27,3.28-.09,3.34-3.04,13.58-4.48,15.54-1.88,2.56-2.7,6.49-4.35,20.91-.63,5.49-1.67,9.69-3.08,12.45-1.34,2.61-2.33,6.47-2.68,10.38-1.1,12.35-2.3,18.39-4.5,22.62-2.66,5.11-4.13,21.24-2.25,24.76,2.2,4.13,21.67,1.7,23.44-2.92.31-.82.57-3.36.58-5.64.01-6.81,1.72-15.4,4.05-20.36,1.72-3.65,2.36-7.01,3.02-15.64.88-11.53,1.52-14.18,4.38-18.17,1.25-1.74,2.03-5.06,2.73-11.63,1.07-10.01,1.68-12.24,4.41-15.95,1.23-1.67,2.07-4.83,2.65-9.91.98-8.67,2.27-13.09,4.1-14.12.72-.4,1.88-3.3,2.59-6.45.71-3.15,1.49-6.59,1.73-7.65s1.46-3.14,2.7-4.62c1.51-1.8,2.55-4.53,3.15-8.26.91-5.68,3.09-11.41,4.35-11.41.8,0,2.3-6.3,3.14-13.21.32-2.62,1.72-6.93,3.11-9.59,1.76-3.35,2.83-7.2,3.51-12.57.65-5.14,1.88-9.64,3.64-13.38,1.99-4.23,2.87-7.77,3.51-14.22.89-8.94,2-13.52,4.03-16.66.66-1.02,1.8-3.87,2.53-6.34,1.98-6.69,3.79-7.55,11.71-5.53,6.07,1.55,10.87,3.86,10.87,5.24,0,.36,2.02,1.75,4.49,3.1,2.47,1.35,4.72,3.04,4.99,3.76.27.72,2.54,2.23,5.03,3.36,2.49,1.12,5.9,3.5,7.58,5.27,4.9,5.17,7.19,3.99,5.32-2.73-.79-2.81-1.91-4.51-3.73-5.62-1.43-.87-3.33-2.79-4.22-4.26-.89-1.47-2.43-2.93-3.41-3.25-.99-.32-2.28-1.92-2.88-3.58-.68-1.9-1.84-3.2-3.14-3.52-1.23-.31-2.68-1.84-3.61-3.8-1.19-2.52-2.24-3.42-4.51-3.89-6.53-1.33-12.16-9.34-11.28-16.05.36-2.74.23-4.3-.35-4.3-.51,0-.92,1.96-.92,4.39"/>
  <path class="cls-1" d="M282.86,334.49c-.33.53-.13,1.43.43,1.99,1.11,1.11,3.02-.87,2.17-2.25-.62-1-1.9-.88-2.6.26"/>
  <path class="cls-1" d="M275.99,341.2c-1.22,1.22-.58,3.11.94,2.81.85-.16,1.55-.86,1.55-1.55,0-1.4-1.56-2.2-2.49-1.27"/>
  <path class="cls-1" d="M268.88,348.34c-.33.32-.59,1.36-.59,2.29,0,2.42,3.02,1.63,3.38-.89.27-1.92-1.43-2.77-2.79-1.4"/>
  <path class="cls-1" d="M261.8,355.45c-.93.93-.69,6.52.27,6.52,1.18,0,3.76-5.18,3.11-6.25-.61-.99-2.51-1.14-3.38-.27"/>
  <path class="cls-1" d="M255.52,362.63c-.37.37-1.2,1.95-1.86,3.52-.74,1.76-2.03,3.07-3.39,3.41-1.35.34-2.41,1.4-2.74,2.75-.3,1.2-1.89,2.99-3.53,3.96-1.64.97-3.23,2.76-3.54,3.98-.3,1.22-1.94,3.74-3.63,5.62s-3.68,4.86-4.41,6.63c-.74,1.77-2.27,3.83-3.41,4.58-1.14.75-2.55,2.95-3.13,4.89-.58,1.94-2.58,5.3-4.45,7.46-1.87,2.17-3.64,4.93-3.95,6.13-.3,1.21-1.55,2.85-2.77,3.66-1.22.8-2.23,2.15-2.23,3,0,1.95-3.3,7.42-5.33,8.84-.85.6-2.15,2.6-2.89,4.44-.74,1.85-2.38,4.33-3.65,5.51-1.26,1.18-2.3,2.67-2.3,3.31,0,1.91-4.27,10.98-5.17,10.98-.46,0-1.54,2.7-2.41,6-1.79,6.84-3.23,10.08-5.18,11.71-.75.62-1.83,3.55-2.41,6.51-.69,3.52-1.89,6.34-3.49,8.16-1.62,1.85-2.8,4.64-3.52,8.35-.68,3.45-2,6.71-3.47,8.58-1.53,1.93-2.91,5.43-3.86,9.76-.81,3.71-2.47,8.65-3.68,10.98-1.59,3.04-2.46,6.7-3.11,13.05-1.01,9.78-2.24,15.23-3.63,16.09-1.71,1.06-2.74,5.25-3.55,14.44-.76,8.64-1.47,11.12-4.99,17.52-1.9,3.47-2.72,17.63-1.13,19.56,2.03,2.46,11.52.97,11.52-1.8,0-.59.83-2.13,1.85-3.43,1.45-1.84,2.03-4.42,2.68-11.9,1.25-14.39,2.41-20.4,4.84-25.05,1.68-3.22,2.39-6.46,3.03-13.69.93-10.64,2.09-15.79,4.43-19.69.88-1.47,1.87-5.27,2.2-8.44.85-8.1,1.87-11.6,4.36-14.99,1.19-1.62,2.65-5.01,3.24-7.53,1.24-5.29,2.19-7.43,4.43-9.92.88-.98,2.24-4.57,3.02-7.99.84-3.66,2.27-7.13,3.47-8.44,1.13-1.24,2.52-4.48,3.11-7.26.59-2.76,2.21-6.76,3.6-8.89,1.39-2.12,3.04-5.66,3.66-7.86.63-2.2,2.16-5.2,3.42-6.68,1.25-1.47,2.85-4.4,3.53-6.5.69-2.1,2.31-4.89,3.6-6.21,1.29-1.32,2.82-4.07,3.4-6.12.58-2.04,2.26-4.84,3.73-6.22,1.51-1.42,3.08-4.13,3.62-6.26.53-2.07,1.91-4.79,3.07-6.05,2.44-2.64,4.77-6.88,4.77-8.68,0-.68.84-2,1.87-2.93,1.68-1.52,4.15-6.15,5.54-10.37.29-.86,1.51-1.95,2.73-2.41,1.27-.48,2.77-2.18,3.52-3.99.74-1.78,2.25-3.51,3.49-3.98,1.38-.52,2.38-1.8,2.75-3.46.31-1.44,1.34-3.32,2.27-4.17.94-.85,1.49-1.89,1.23-2.31-.58-.95-4.25-1.02-5.17-.1"/>
  <path class="cls-1" d="M430.97,383.45c-1.51.85-1.52.98-.06,2.59,2.06,2.29,3.03,2.14,3.03-.47s-.87-3.29-2.96-2.12"/>
  <path class="cls-1" d="M898.87,507.88c-.71,3.61-1.9,6.41-3.51,8.24-1.62,1.85-2.8,4.64-3.52,8.35-.7,3.58-2,6.71-3.63,8.77-1.4,1.76-2.54,3.68-2.54,4.25,0,2.8-2.95,10.47-4.92,12.83-1.22,1.46-2.82,4.66-3.54,7.11-.73,2.45-2.32,5.65-3.54,7.11-1.22,1.46-2.82,4.66-3.54,7.11-.73,2.45-2.32,5.65-3.54,7.11-1.22,1.46-2.82,4.66-3.54,7.11-.73,2.45-2.32,5.65-3.54,7.11-1.22,1.46-2.8,4.61-3.51,7.01-.71,2.4-2.05,5.05-2.99,5.9-.93.85-2.54,3.51-3.57,5.92-1.03,2.41-2.78,4.97-3.88,5.69-1.16.76-2.44,2.98-3.05,5.24-.59,2.22-2.21,5.02-3.74,6.46-1.48,1.4-3.3,4.4-4.05,6.67-.75,2.26-2.11,4.79-3.02,5.62-.91.83-2.5,3.47-3.53,5.88s-2.86,5.02-4.07,5.82c-1.2.79-2.19,2.01-2.19,2.71,0,1.82-3.15,7.76-4.88,9.2-.8.67-2.43,3.13-3.61,5.46-1.18,2.33-2.94,4.67-3.92,5.2-.98.52-1.78,1.64-1.78,2.48,0,1.94-3.3,7.41-5.33,8.83-.85.6-2.15,2.6-2.88,4.44-.74,1.85-2.18,4.12-3.2,5.05-1.02.93-2.82,3.79-4,6.37-1.17,2.57-2.89,5.08-3.82,5.58s-2.43,2.3-3.35,4.01c-.92,1.71-2.58,3.52-3.69,4.03-1.11.51-2.6,2.31-3.3,4-.7,1.69-2.31,3.75-3.57,4.58-1.26.83-2.29,2.06-2.29,2.73s-1.32,2.73-2.94,4.56c-1.62,1.83-3.62,4.34-4.44,5.56-1.88,2.78-7.13,8.9-11.31,13.18-1.76,1.8-3.66,4.16-4.23,5.26-.57,1.1-2.22,2.6-3.67,3.36-1.45.75-2.63,1.94-2.63,2.64s-1.41,2.39-3.13,3.76c-1.72,1.36-3.9,3.78-4.84,5.37-.94,1.59-2.35,2.89-3.12,2.89s-1.99,1.41-2.71,3.14c-.72,1.73-2.31,3.6-3.53,4.16-1.22.56-2.85,2.35-3.63,3.98-.82,1.74-2.28,3.19-3.54,3.5-1.33.34-2.62,1.68-3.39,3.55-.72,1.73-2.23,3.38-3.53,3.88-1.25.48-2.64,1.85-3.1,3.05-.45,1.2-2,3.05-3.43,4.11-1.43,1.06-3.1,2.86-3.7,4-.61,1.14-2.15,2.51-3.42,3.04-1.28.53-3,2.16-3.83,3.62-.83,1.46-2.53,3.04-3.78,3.52-1.24.47-2.71,1.85-3.26,3.06-.55,1.21-2.27,2.8-3.82,3.54-1.55.74-3.28,2.35-3.83,3.57-.56,1.23-2.42,2.82-4.14,3.54-1.72.72-3.13,1.92-3.13,2.67s-1.1,2.05-2.44,2.9c-1.34.85-3.94,2.96-5.77,4.69-1.83,1.73-4.62,4.37-6.2,5.87-1.58,1.5-4.71,3.8-6.95,5.12-2.24,1.32-4.78,3.18-5.64,4.13-.86.95-2.84,2.16-4.4,2.68-1.56.52-3.72,2.13-4.79,3.59-1.07,1.46-2.5,2.65-3.18,2.65s-3.35,1.81-5.93,4.03c-2.59,2.21-5.91,4.34-7.38,4.73-2.18.58-2.62,1.1-2.38,2.86.6,4.39,2.42,5.88,9.04,7.38,3.86.88,7.37,2.31,8.98,3.66,1.45,1.22,3.51,2.23,4.56,2.24s2.77.24,3.81.52c1.41.38,2.79-.41,5.47-3.12,1.97-2,3.91-3.63,4.32-3.63.4,0,2.51-1.59,4.69-3.53,2.18-1.94,5.07-3.77,6.43-4.07,1.36-.3,2.88-1.31,3.38-2.25.5-.94,2.84-2.69,5.2-3.89,2.36-1.2,4.51-2.77,4.79-3.48.27-.72,2.42-2.42,4.76-3.78,2.35-1.36,5.32-3.6,6.61-4.96,1.29-1.36,2.97-2.48,3.73-2.48s3.09-1.6,5.18-3.55c2.09-1.95,5.32-4.85,7.17-6.44,1.86-1.59,5.08-4.49,7.17-6.45,2.09-1.96,6.87-6.16,10.63-9.33,3.76-3.18,7.97-7.3,9.35-9.17,4.2-5.66,18.96-21.75,30.74-33.5,6.26-6.25,7.68-7.7,15.41-15.8,1.74-1.82,3.61-4.37,4.15-5.68.55-1.3,1.8-2.62,2.78-2.94.98-.31,2.04-1.45,2.37-2.52.32-1.08,1.88-3.36,3.46-5.07,1.58-1.71,3.53-4.11,4.34-5.33,1.83-2.76,7.05-8.85,11.29-13.18,1.76-1.8,3.85-4.54,4.64-6.09.79-1.55,2.2-3.07,3.13-3.36.93-.3,1.94-1.52,2.24-2.72.3-1.2,1.75-3.48,3.22-5.08,5.43-5.88,10.63-12.78,12.26-16.23.92-1.96,2.46-4.02,3.41-4.6.96-.57,1.99-2.26,2.28-3.74.3-1.49,1.95-4.26,3.66-6.17,1.72-1.91,3.72-4.9,4.44-6.64.73-1.74,2.06-3.7,2.97-4.34.91-.64,2.47-3.04,3.48-5.33,1.01-2.29,2.84-5.04,4.07-6.12,1.23-1.08,2.82-3.4,3.53-5.17.71-1.77,2.31-4.17,3.55-5.33,1.24-1.16,2.51-3.28,2.83-4.72.31-1.43,1.97-4.01,3.68-5.72,1.71-1.71,3.48-4.48,3.94-6.14.46-1.66,1.82-4.2,3.03-5.65,1.21-1.44,3.01-4.46,4-6.7.99-2.24,2.69-4.67,3.78-5.38,1.13-.74,2.43-2.98,3.02-5.22.59-2.22,2.21-5.02,3.74-6.47,1.48-1.4,3.14-3.95,3.68-5.66.54-1.71,1.9-4.11,3-5.33,1.97-2.18,5.74-9.7,5.74-11.46,0-.49.9-1.52,1.99-2.29,2.86-2.01,2.89-18.51.04-30.26-1.92-7.92-3.79-28.58-3.82-42.07-.02-11.8-1.84-14.48-3.63-5.36"/>
  <path class="cls-1" d="M892.93,696.45c-.5.6-1.18,2.2-1.52,3.55-.34,1.35-1.73,3.25-3.1,4.23-1.37.98-2.76,3-3.08,4.49-.33,1.49-1.92,4.04-3.53,5.66-1.62,1.62-3.58,4.2-4.37,5.72-.78,1.52-2.39,3.4-3.57,4.18-1.18.77-2.4,2.62-2.73,4.11-.33,1.49-1.9,4.16-3.49,5.94-1.59,1.78-3.67,4.52-4.61,6.09-.95,1.57-2.73,3.66-3.98,4.64s-2.75,2.98-3.36,4.45c-.6,1.47-1.86,2.91-2.79,3.21-.93.3-2.51,2.16-3.52,4.13-1.01,1.98-2.58,3.79-3.5,4.03-.92.24-1.92,1.3-2.23,2.34s-1.92,3.3-3.58,5.02c-1.67,1.71-5.07,5.51-7.56,8.44-2.5,2.93-6.11,7.07-8.02,9.2-1.92,2.13-3.9,4.78-4.41,5.9-.51,1.12-1.9,2.48-3.09,3.03-1.19.54-2.58,2.2-3.1,3.68-.52,1.5-2.1,3.3-3.56,4.06-1.45.75-3.03,2.51-3.51,3.91-.54,1.56-1.85,2.88-3.39,3.42-1.38.48-3.04,1.98-3.7,3.34-.66,1.35-2.31,3.08-3.67,3.85-1.36.77-2.97,2.4-3.57,3.62-.6,1.22-2.18,2.74-3.5,3.38-1.33.64-2.98,2.26-3.67,3.61-.69,1.34-2.27,2.9-3.5,3.47-1.23.56-2.83,2.16-3.54,3.56-.72,1.39-2.31,2.99-3.54,3.56-1.23.56-2.84,2.2-3.58,3.63-.74,1.44-2.54,3.03-4.03,3.55-1.48.52-2.68,1.49-2.68,2.16,0,1.46-3.66,5.09-5.13,5.09-.56,0-1.64,1.19-2.39,2.65-.75,1.46-2.57,3.28-4.05,4.04-1.47.77-3.08,2.28-3.57,3.36-.49,1.08-2.47,2.87-4.39,3.98-1.92,1.11-3.5,2.4-3.5,2.85s-2.29,2.4-5.09,4.31c-2.8,1.92-5.83,4.31-6.73,5.32-.9,1.01-2.78,2.08-4.17,2.39-1.4.31-2.77,1.33-3.07,2.29-.3.95-2.01,2.48-3.8,3.4-1.79.92-4.05,2.57-5.03,3.67-.97,1.1-3.89,3.37-6.47,5.04-2.58,1.67-4.91,3.58-5.16,4.25-.25.66-2.02,1.83-3.94,2.6-3.82,1.54-3.9,1.7-2.52,5.68.99,2.86,3.02,3.9,9.96,5.13,1.86.33,4.5,1.54,5.85,2.69,6.11,5.16,18.53,5.7,23.35,1.02,5.51-5.35,13.45-11.56,15.87-12.41,1.32-.46,2.62-1.56,2.9-2.42.27-.87,2.07-2.29,4-3.16,1.93-.87,3.74-2.33,4.03-3.25.29-.91,1.69-2.26,3.11-3,1.42-.74,3.92-2.63,5.56-4.21,5.71-5.51,14.04-12.21,15.18-12.21.63,0,2.17-1.35,3.43-3.01,1.26-1.65,3.31-3.26,4.56-3.58,1.29-.32,2.64-1.53,3.12-2.78.46-1.21,2.24-2.88,3.96-3.7,1.72-.82,3.12-1.95,3.12-2.51,0-1.25,3.75-4.88,5.04-4.88.52,0,1.45-1.22,2.06-2.71.61-1.49,2.27-3.31,3.69-4.04,1.41-.73,3.03-2.34,3.59-3.58.56-1.24,2.12-2.82,3.45-3.51,1.34-.69,2.96-2.36,3.6-3.7.64-1.34,2.29-2.98,3.67-3.64,1.38-.66,2.91-2.38,3.41-3.81.5-1.44,2-3.18,3.34-3.87,1.34-.7,2.92-2.43,3.51-3.86.59-1.43,2.05-3.04,3.24-3.59,1.2-.55,2.53-1.94,2.97-3.09.44-1.15,6.91-8.4,14.38-16.1,11.47-11.83,13.77-14.65,14.75-18.14.64-2.28,2.32-6.54,3.72-9.47,1.63-3.41,3.02-8.42,3.83-13.91.87-5.82,2-9.82,3.53-12.45,1.61-2.76,2.53-6.17,3.21-11.87.68-5.7,1.72-9.53,3.61-13.33,1.84-3.69,2.91-7.55,3.47-12.51.45-3.94,1.07-8.21,1.39-9.48.69-2.74-2.21-5.08-3.84-3.1"/>
</svg>